<svg width="16" height="16" viewBox="0 0 16 16" fill="none" xmlns="http://www.w3.org/2000/svg">
<path d="M16 2.5C15.4 2.8 14.8 2.9 14.1 3C14.8 2.6 15.3 2 15.5 1.2C14.9 1.6 14.2 1.8 13.4 2C12.8 1.4 11.9 1 11 1C9.3 1 7.8 2.5 7.8 4.3C7.8 4.6 7.8 4.8 7.9 5C5.2 4.9 2.7 3.6 1.1 1.6C0.8 2.1 0.7 2.6 0.7 3.3C0.7 4.4 1.3 5.4 2.2 6C1.7 6 1.2 5.8 0.7 5.6C0.7 7.2 1.8 8.5 3.3 8.8C3 8.9 2.7 8.9 2.4 8.9C2.2 8.9 2 8.9 1.8 8.8C2.2 10.1 3.4 11.1 4.9 11.1C3.8 12 2.4 12.5 0.8 12.5C0.5 12.5 0.3 12.5 0 12.5C1.5 13.4 3.2 14 5 14C11 14 14.3 9 14.3 4.7C14.3 4.6 14.3 4.4 14.3 4.3C15 3.8 15.6 3.2 16 2.5Z" fill="#4A5078"/>
</svg>
