<svg width="17" height="16" viewBox="0 0 17 16" fill="none" xmlns="http://www.w3.org/2000/svg">
<path fill-rule="evenodd" clip-rule="evenodd" d="M0.7 0.000488281H15.3C15.7 0.000488281 16 0.300488 16.1 0.700488V15.3005C16.1 15.7005 15.8 16.0005 15.4 16.0005H0.7C0.3 16.0005 0 15.7005 0 15.4005V0.700488C0 0.300488 0.3 0.000488281 0.7 0.000488281ZM2.39999 13.6005H4.69999H4.79999V6.00049H2.39999V13.6005ZM3.60001 5.0005C2.80001 5.0005 2.20001 4.3005 2.20001 3.6005C2.20001 2.8005 2.80001 2.2005 3.60001 2.2005C4.40001 2.2005 5.00001 2.8005 5.00001 3.6005C4.90001 4.3005 4.30001 5.0005 3.60001 5.0005ZM11.2 13.6005H13.5V9.40054C13.5 7.40054 13.1 5.80054 10.7 5.80054C9.60001 5.80054 8.80001 6.40054 8.50001 7.00054V6.00054H6.20001V13.7005H8.60001V9.90054C8.60001 8.90054 8.80001 7.90054 10 7.90054C11.2 7.90054 11.2 9.00054 11.2 9.90054V13.6005Z" fill="#4A5078"/>
</svg>
