<svg width="24" height="24" viewBox="0 0 24 24" fill="none" xmlns="http://www.w3.org/2000/svg">
<path d="M12 16.8639C9.972 14.8349 6.915 14.4619 4.508 15.7449C3.825 16.1089 3 15.6599 3 14.8859V5.79391C3 5.15791 3.294 4.54591 3.812 4.17691C6.297 2.40491 9.77 2.63391 12 4.86391C14.23 2.63391 17.703 2.40491 20.188 4.17691C20.706 4.54591 21 5.15791 21 5.79391V14.8859C21 15.6599 20.175 16.1099 19.492 15.7449C17.085 14.4619 14.028 14.8349 12 16.8639V16.8639Z" stroke="#1757C2" stroke-width="1.5" stroke-linecap="round" stroke-linejoin="round"/>
<path d="M4.50781 19.8808C6.91481 18.5978 9.97181 18.9708 11.9998 20.9998C14.0278 18.9708 17.0848 18.5978 19.4918 19.8808" stroke="#1757C2" stroke-width="1.5" stroke-linecap="round" stroke-linejoin="round"/>
<path d="M12 16.8599V4.85986" stroke="#1757C2" stroke-width="1.5" stroke-linecap="round" stroke-linejoin="round"/>
</svg>
