<svg width="24" height="24" viewBox="0 0 24 24" fill="none" xmlns="http://www.w3.org/2000/svg">
<path d="M21.0046 11.68C20.8846 13.4 19.5646 15.24 16.9446 15.24C15.7446 15.24 15.1246 15.24 15.1246 15.24C14.6846 15.24 14.3246 14.86 14.3246 14.42C14.3246 13.98 14.6846 13.6 15.1246 13.6C15.1246 13.6 15.7446 13.62 16.9446 13.62C18.5446 13.62 19.3446 12.6 19.4246 11.56C19.5046 10.5 18.8246 9.32003 17.1646 9.08003C16.9446 9.04003 16.7446 8.92001 16.6246 8.74001C16.5046 8.56001 16.4646 8.32002 16.5046 8.10002C16.7246 7.20002 16.4846 6.48001 15.9046 6.14001C15.4046 5.86001 14.6046 5.86002 13.9246 6.52002C13.7446 6.70002 13.4846 6.78001 13.2446 6.74001C13.0046 6.70001 12.7846 6.54002 12.6646 6.32002C11.5446 4.22002 9.80459 4.10001 8.66459 4.64001C7.56459 5.16001 6.68459 6.46002 7.36459 8.10002C7.44459 8.30002 7.44457 8.54001 7.34457 8.74001C7.24457 8.94001 7.06459 9.10003 6.86459 9.16003C4.56459 9.88003 4.60459 11.42 4.66459 11.86C4.78459 12.72 5.46458 13.58 6.52458 13.58H8.96459C9.40459 13.58 9.76459 13.94 9.76459 14.38C9.76459 14.82 9.40459 15.16 8.96459 15.16H6.52458C4.80458 15.16 3.36459 13.88 3.08459 12.1C2.88459 10.72 3.44458 8.88002 5.62458 7.90002C5.12458 5.76002 6.34459 3.94003 7.96459 3.18003C9.64459 2.38003 12.0046 2.60003 13.5846 4.78003C14.5646 4.24003 15.7246 4.20001 16.6846 4.74001C17.5046 5.20001 18.2446 6.18001 18.1846 7.64001C20.2446 8.32001 21.1046 10.12 21.0046 11.68ZM14.7446 16.52L12.8046 18.46L12.7846 11.2C12.7846 10.76 12.4246 10.38 11.9846 10.38C11.5446 10.38 11.1846 10.76 11.1846 11.2L11.2046 18.44L9.26459 16.5C8.94459 16.18 8.44458 16.18 8.12458 16.5C7.80458 16.82 7.80458 17.32 8.12458 17.64L11.4246 20.96C11.5846 21.12 11.7846 21.2 11.9846 21.2C12.2046 21.2 12.4046 21.12 12.5446 20.96L15.8446 17.66C16.1646 17.34 16.1646 16.84 15.8446 16.52C15.5646 16.22 15.0646 16.22 14.7446 16.52Z" fill="white"/>
</svg>
