<svg width="24" height="24" viewBox="0 0 24 24" fill="none" xmlns="http://www.w3.org/2000/svg">
<path d="M6.5 6.5H9.14" stroke="#1757C2" stroke-width="1.5" stroke-linecap="round" stroke-linejoin="round"/>
<path d="M6.5 10H10.02" stroke="#1757C2" stroke-width="1.5" stroke-linecap="round" stroke-linejoin="round"/>
<path d="M6.5 13.5H10.9" stroke="#1757C2" stroke-width="1.5" stroke-linecap="round" stroke-linejoin="round"/>
<path d="M17.5004 13.5H14.4004" stroke="#1757C2" stroke-width="1.5" stroke-linecap="round" stroke-linejoin="round"/>
<path d="M17.5004 10H13.9004" stroke="#1757C2" stroke-width="1.5" stroke-linecap="round" stroke-linejoin="round"/>
<path d="M11.182 20.718L14.193 17.707C14.638 17.262 14.848 16.633 14.759 16.01L13.145 4.717C13.004 3.732 12.16 3 11.165 3H5C3.895 3 3 3.895 3 5V15C3 16.105 3.895 17 5 17H14.658" stroke="#1757C2" stroke-width="1.5" stroke-linecap="round" stroke-linejoin="round"/>
<path d="M9.90039 17L10.2264 19.283C10.3664 20.268 11.2104 21 12.2064 21H19.0004C20.1054 21 21.0004 20.105 21.0004 19V8C21.0004 6.895 20.1054 6 19.0004 6H13.9004" stroke="#1757C2" stroke-width="1.5" stroke-linecap="round" stroke-linejoin="round"/>
</svg>
