<svg xmlns="http://www.w3.org/2000/svg" width="440" height="309" fill="none" xmlns:v="https://vecta.io/nano"><path fill="#fff" d="M0 0h440v309H0z"/><path d="M210.01 152.295h-1.38l-4.22 15.674h1.38l4.22-15.674zm10.992.4c-2.66-.026-4.372 1.968-4.372 4.397 0 2.532 1.867 4.347 4.117 4.347 1.355 0 2.505-.665 3.22-1.74h.102c0 3.222-1.252 5.063-3.272 5.063-1.38 0-2.225-.87-2.506-2.07h-1.56c.307 2.07 1.867 3.477 4.066 3.477 2.94 0 4.755-2.608 4.755-7.26 0-4.833-2.403-6.188-4.55-6.213zm0 1.406c1.637 0 2.838 1.406 2.838 2.966s-1.278 2.966-2.89 2.966-2.787-1.304-2.787-2.94c0-1.662 1.227-2.99 2.838-2.99zm11.156 12.068c2.493 0 4.32-1.84 4.32-4.347 0-2.537-1.764-4.397-4.168-4.397-.882 0-1.738.313-2.275.74h-.077l.46-3.86h5.472v-1.406h-6.8l-.793 6.443 1.483.18c.543-.4 1.47-.67 2.276-.665 1.668.013 2.89 1.28 2.89 2.992 0 1.68-1.176 2.915-2.787 2.915-1.342 0-2.4-.863-2.53-2.046h-1.534c.096 1.995 1.815 3.452 4.065 3.452zm11.13 0c2.89 0 4.55-2.448 4.55-6.724 0-4.245-1.687-6.725-4.55-6.725s-4.55 2.48-4.55 6.725c0 4.276 1.662 6.724 4.55 6.724zm0-1.406c-1.905 0-3.017-1.91-3.017-5.318 0-3.4 1.125-5.344 3.017-5.344s3.017 1.943 3.017 5.344c0 3.407-1.112 5.318-3.017 5.318z" fill="#5d6598"/><path d="M80 146c0 13.255-10.745 24-24 24s-24-10.745-24-24 10.745-24 24-24 24 10.745 24 24z" fill="#f4fbf7"/><g fill="#20af5d"><path fill-rule="evenodd" d="M56 123c-12.702 0-23 10.297-23 23s10.298 23 23 23 23-10.297 23-23-10.297-23-23-23zm-25 23c0-13.807 11.193-25 25-25s25 11.193 25 25-11.193 25-25 25-25-11.193-25-25z"/><path d="M49.585 156H47l7.477-20.364h2.545L64.5 156h-2.585l-6.085-17.142h-.16L49.585 156zm.955-7.954h10.42v2.187H50.54v-2.187zm63.143 18.51c8.134 0 13.8-4.753 13.84-11.375-.04-5.15-3.48-9.526-7.875-10.34v-.24c3.818-.994 6.324-4.733 6.364-9.068-.04-6.204-5.25-10.818-12.33-10.818-7.16 0-12.37 4.614-12.33 10.818-.04 4.335 2.466 8.074 6.363 9.068v.24c-4.474.815-7.914 5.2-7.875 10.34-.04 6.622 5.628 11.375 13.84 11.375zm0-4.375c-5.588 0-9.028-2.864-8.988-7.24-.04-4.594 3.758-7.875 8.988-7.875 5.15 0 8.95 3.28 9 7.875-.04 4.375-3.48 7.24-9 7.24zm0-19.33c-4.454 0-7.596-2.784-7.557-7-.04-4.136 2.983-6.84 7.557-6.84 4.495 0 7.517 2.705 7.557 6.84-.04 4.216-3.182 7-7.557 7zm34.2 23.705c7.756 0 13.443-5.727 13.443-13.523 0-7.895-5.5-13.682-12.966-13.682-2.744 0-5.4.975-7.08 2.307h-.24l1.432-12h17.023v-4.375h-21.16l-2.465 20.045 4.613.557c1.7-1.213 4.574-2.088 7.08-2.068 5.2.04 8.988 3.977 8.988 9.307 0 5.23-3.66 9.068-8.67 9.068-4.176 0-7.497-2.685-7.875-6.364h-4.773c.298 6.205 5.648 10.74 12.648 10.74zm34.627 0c9 0 14.16-7.617 14.16-20.92 0-13.204-5.25-20.92-14.16-20.92s-14.16 7.716-14.16 20.92c0 13.304 5.17 20.92 14.16 20.92zm0-4.375c-5.926 0-9.386-5.946-9.386-16.546 0-10.58 3.5-16.625 9.386-16.625s9.386 6.046 9.386 16.625c0 10.6-3.46 16.546-9.386 16.546z"/></g><path d="M45.466 38c-.54-2.983-2.926-4.744-5.852-4.744-3.722 0-6.42 2.87-6.42 7.472s2.7 7.472 6.42 7.472c2.926 0 5.313-1.76 5.852-4.744h-1.76c-.426 2.017-2.16 3.097-4.09 3.097-2.642 0-4.716-2.045-4.716-5.824s2.074-5.824 4.716-5.824c1.932 0 3.665 1.08 4.09 3.097h1.76zm3.7 14.063c1.513 0 2.585-.803 3.2-2.472L57.02 37.12l-1.832-.028-3.01 8.693h-.114l-3.01-8.693h-1.818l4.034 10.966-.312.852c-.597 1.633-1.364 1.8-2.585 1.477l-.426 1.477c.17.085.653.2 1.222.2zM59.465 48h1.62v-1.676h.2c.37.597 1.08 1.903 3.182 1.903 2.727 0 4.63-2.187 4.63-5.653 0-3.437-1.903-5.625-4.66-5.625-2.13 0-2.784 1.307-3.153 1.875h-.142v-5.37h-1.676V48zm1.648-5.455c0-2.443 1.08-4.09 3.125-4.09 2.13 0 3.182 1.8 3.182 4.09 0 2.33-1.08 4.176-3.182 4.176-2.017 0-3.125-1.705-3.125-4.176zm15.12 5.682c2.216 0 3.835-1.108 4.346-2.756l-1.62-.455c-.426 1.136-1.413 1.705-2.727 1.705-1.967 0-3.324-1.27-3.402-3.608h7.92v-.7c0-4.062-2.415-5.454-4.687-5.454-2.954 0-4.915 2.33-4.915 5.682s1.932 5.597 5.085 5.597zm-3.402-6.562c.114-1.697 1.314-3.2 3.23-3.2 1.818 0 2.983 1.364 2.983 3.2H72.83zM83.3 48h1.676v-6.903c0-1.477 1.165-2.557 2.756-2.557a5.13 5.13 0 0 1 1.023.114V36.95l-.88-.028c-1.307 0-2.443.74-2.84 1.818h-.114V37.09H83.3V48zm20.793-8.466c-.525-1.548-1.704-2.585-3.863-2.585-2.3 0-4.006 1.307-4.006 3.153 0 1.506.895 2.514 2.898 2.983l1.818.426c1.1.256 1.62.78 1.62 1.534 0 .938-.994 1.705-2.557 1.705-1.37 0-2.23-.6-2.528-1.76l-1.59.398c.39 1.854 1.918 2.84 4.148 2.84 2.535 0 4.26-1.385 4.26-3.267 0-1.52-.95-2.48-2.897-2.955l-1.62-.398c-1.293-.32-1.875-.753-1.875-1.59 0-.937.994-1.62 2.33-1.62 1.463 0 2.067.8 2.358 1.563l1.505-.426zm7.296 8.693c2.216 0 3.835-1.108 4.347-2.756l-1.62-.455c-.426 1.136-1.413 1.705-2.727 1.705-1.967 0-3.324-1.27-3.402-3.608h7.92v-.7c0-4.062-2.415-5.454-4.687-5.454-2.955 0-4.915 2.33-4.915 5.682s1.932 5.597 5.085 5.597zm-3.402-6.562c.114-1.697 1.314-3.2 3.232-3.2 1.818 0 2.983 1.364 2.983 3.2h-6.215zm14.9 6.563c2.415 0 4.005-1.477 4.3-3.41H125.5c-.312 1.193-1.306 1.903-2.613 1.903-1.99 0-3.267-1.648-3.267-4.176 0-2.472 1.307-4.09 3.267-4.09 1.477 0 2.358.91 2.613 1.903h1.677c-.285-2.045-2.017-3.41-4.32-3.41-2.954 0-4.914 2.33-4.914 5.653 0 3.267 1.875 5.625 4.943 5.625zm13.615-4.687c0 2.045-1.563 2.983-2.813 2.983-1.392 0-2.386-1.023-2.386-2.614V37.09h-1.676v6.932c0 2.784 1.477 4.12 3.523 4.12 1.647 0 2.727-.88 3.238-1.99h.114V48h1.676V37.09h-1.676v6.45zM141.25 48h1.676v-6.903c0-1.477 1.165-2.557 2.756-2.557.447 0 .91.085 1.022.114V36.95l-.88-.028c-1.307 0-2.443.74-2.84 1.818h-.114V37.09h-1.62V48zm7.44 0h1.676V37.09H148.7V48zm.853-12.727c.653 0 1.193-.51 1.193-1.136S150.196 33 149.543 33s-1.194.51-1.194 1.136.54 1.136 1.194 1.136zm8.638 1.818h-2.33v-2.614h-1.676v2.614h-1.648v1.42h1.648v6.818c0 1.903 1.534 2.813 2.955 2.813.625 0 1.022-.114 1.25-.2l-.34-1.506c-.142.028-.37.085-.74.085-.74 0-1.45-.227-1.45-1.648V38.51h2.33v-1.42zm3.6 14.972c1.512 0 2.585-.803 3.2-2.472l4.645-12.472-1.833-.028-3.01 8.693h-.114l-3.01-8.693h-1.818l4.034 10.966-.313.852c-.596 1.633-1.363 1.8-2.585 1.477l-.426 1.477c.17.085.653.2 1.222.2zM177.48 48h1.677v-6.903c0-1.477 1.164-2.557 2.755-2.557a5.13 5.13 0 0 1 1.023.114V36.95l-.88-.028c-1.307 0-2.443.74-2.84 1.818h-.113V37.09h-1.62V48zm10.652.256c1.903 0 2.898-1.023 3.24-1.733h.085V48h1.676v-7.187c0-3.466-2.642-3.864-4.034-3.864-1.648 0-3.523.568-4.375 2.557l1.59.568c.37-.796 1.243-1.648 2.84-1.648 1.54 0 2.3.817 2.3 2.216v.057c0 .8-.824.74-2.813.994-2.024.263-4.233.7-4.233 3.2 0 2.13 1.648 3.352 3.722 3.352zm.256-1.506c-1.336 0-2.3-.597-2.3-1.76 0-1.278 1.164-1.676 2.47-1.847.7-.085 2.614-.284 2.898-.625v1.534c0 1.364-1.08 2.7-3.068 2.7zm12.548-9.66h-2.33v-2.614h-1.676v2.614h-1.648v1.42h1.648v6.818c0 1.903 1.534 2.813 2.955 2.813.625 0 1.022-.114 1.25-.2l-.34-1.506c-.142.028-.37.085-.74.085-.74 0-1.45-.227-1.45-1.648V38.51h2.33v-1.42zm2.52 10.91h1.676V37.09h-1.676V48zm.852-12.727c.654 0 1.193-.51 1.193-1.136S204.962 33 204.308 33s-1.193.51-1.193 1.136.54 1.136 1.193 1.136zm5.57 6.165c0-1.903 1.18-2.983 2.784-2.983 1.556 0 2.5 1.016 2.5 2.727V48h1.676v-6.932c0-2.784-1.484-4.12-3.693-4.12-1.647 0-2.67.74-3.182 1.847h-.142V37.09h-1.62V48h1.676v-6.562zm14.427 10.88c2.613 0 4.716-1.193 4.716-4.006V37.09h-1.62v1.733h-.17c-.37-.568-1.05-1.875-3.182-1.875-2.756 0-4.66 2.188-4.66 5.54 0 3.41 1.99 5.34 4.63 5.34 2.13 0 2.812-1.25 3.18-1.847h.142V48.2c0 1.818-1.278 2.642-3.04 2.642-1.982 0-2.678-1.044-3.125-1.648l-1.336.938c.682 1.143 2.025 2.188 4.46 2.188zm-.057-5.994c-2.102 0-3.182-1.59-3.182-3.864 0-2.216 1.05-4.006 3.182-4.006 2.045 0 3.125 1.648 3.125 4.006 0 2.415-1.108 3.864-3.125 3.864z" fill="#131520"/><path d="M278 40c0-6.627 5.373-12 12-12h106c6.627 0 12 5.373 12 12s-5.373 12-12 12H290c-6.627 0-12-5.373-12-12z" fill="#e8eef9"/><path d="M293.6 46.578c-.52 0-.967-.068-1.342-.204s-.677-.317-.912-.54-.412-.463-.53-.724l1.095-.452c.077.12.18.25.307.388a1.63 1.63 0 0 0 .529.358c.224.1.512.15.865.15.483 0 .882-.116 1.197-.35s.473-.602.473-1.108v-1.287h-.08a2.91 2.91 0 0 1-.332.464c-.142.17-.338.318-.588.443s-.576.188-.976.188c-.517 0-.983-.12-1.398-.362s-.74-.604-.98-1.078-.358-1.064-.358-1.76.118-1.293.354-1.8.565-.878.98-1.142.885-.4 1.4-.4c.407 0 .735.068.985.205s.444.3.584.47a3.77 3.77 0 0 1 .328.473h.093v-1.06h1.25v6.7c0 .557-.13 1.014-.392 1.372s-.615.628-1.06.8a4.09 4.09 0 0 1-1.5.26zm-.013-3.733c.367 0 .676-.085.93-.256s.45-.42.58-.742.2-.712.2-1.163c0-.44-.065-.828-.196-1.163s-.323-.597-.575-.784-.566-.285-.938-.285c-.383 0-.703.1-.96.298s-.45.463-.58.8a3.18 3.18 0 0 0-.192 1.134c0 .43.065.805.196 1.13a1.67 1.67 0 0 0 .58.759c.258.182.576.273.954.273zm6.95-7.572V44h-1.274v-8.727h1.274zm5.47 8.86c-.613 0-1.15-.14-1.606-.422s-.813-.675-1.066-1.18-.38-1.097-.38-1.773.126-1.273.38-1.78.608-.904 1.066-1.185.993-.422 1.606-.422 1.15.14 1.607.422a2.84 2.84 0 0 1 1.065 1.185c.253.508.38 1.102.38 1.78s-.126 1.267-.38 1.773-.608.9-1.065 1.18-.993.422-1.607.422zm.004-1.07c.398 0 .728-.105.99-.315s.455-.5.58-.84a3.36 3.36 0 0 0 .191-1.155c0-.418-.064-.8-.19-1.15s-.32-.635-.58-.848-.59-.32-.99-.32-.733.107-.997.32-.456.496-.584.848-.187.733-.187 1.15.062.805.187 1.155.323.63.584.84.597.315.997.315zm5.572.938v-8.727h1.274v3.243h.077a3.59 3.59 0 0 1 .319-.473c.14-.18.333-.335.58-.47s.574-.205.98-.205c.528 0 1 .133 1.415.4s.74.652.976 1.155.357 1.108.357 1.815-.117 1.314-.353 1.82-.56.89-.972 1.163-.882.405-1.4.405c-.398 0-.723-.067-.976-.2s-.446-.3-.588-.47-.252-.338-.328-.477h-.107V44h-1.244zm1.248-3.273c0 .46.067.864.2 1.2s.326.618.58.814.563.3.93.3c.38 0 .7-.1.955-.303s.45-.48.58-.83.2-.743.2-1.18a3.27 3.27 0 0 0-.196-1.163 1.78 1.78 0 0 0-.58-.814c-.256-.2-.575-.298-.96-.298-.37 0-.682.095-.937.285s-.445.456-.576.797-.196.74-.196 1.193zm9.066 3.418c-.415 0-.8-.077-1.125-.23s-.6-.382-.797-.678-.3-.658-.3-1.087c0-.37.07-.673.214-.912s.333-.427.575-.567a3 3 0 0 1 .809-.315c.3-.07.603-.125.912-.162l.955-.11c.244-.03.422-.08.533-.15s.166-.18.166-.332v-.03c0-.372-.105-.66-.316-.865s-.517-.307-.93-.307c-.43 0-.767.095-1.014.286s-.413.396-.507.626l-1.197-.273c.142-.398.35-.72.622-.963s.592-.426.95-.537a3.71 3.71 0 0 1 1.129-.17c.262 0 .54.03.83.094a2.43 2.43 0 0 1 .827.332c.26.162.47.393.635.695s.247.686.247 1.163V44h-1.244v-.895h-.05c-.083.165-.206.327-.37.486s-.376.29-.635.396-.568.158-.93.158zm.277-1.023c.352 0 .653-.07.903-.21s.445-.32.576-.546a1.42 1.42 0 0 0 .2-.729v-.844c-.045.045-.133.088-.264.128s-.274.07-.44.098l-.482.073-.392.05c-.247.03-.473.084-.677.158a1.16 1.16 0 0 0-.486.32c-.12.136-.18.318-.18.545 0 .315.116.554.35.716s.53.24.89.24zm6.924-7.85V44h-1.274v-8.727h1.274zM331.916 44v-8.727h1.274v3.243h.077a3.59 3.59 0 0 1 .319-.473c.14-.18.333-.335.58-.47s.574-.205.98-.205c.528 0 1 .133 1.415.4s.74.652.976 1.155.358 1.108.358 1.815-.118 1.314-.354 1.82-.56.89-.972 1.163-.882.405-1.4.405c-.398 0-.723-.067-.976-.2s-.446-.3-.588-.47-.252-.338-.328-.477h-.107V44h-1.244zm1.248-3.273c0 .46.067.864.2 1.2s.326.618.58.814.563.3.93.3c.38 0 .7-.1.955-.303s.45-.48.58-.83.2-.743.2-1.18a3.27 3.27 0 0 0-.196-1.163 1.78 1.78 0 0 0-.58-.814c-.256-.2-.575-.298-.96-.298-.37 0-.682.095-.937.285s-.445.456-.576.797-.196.74-.196 1.193zm9.066 3.418c-.415 0-.8-.077-1.125-.23s-.6-.382-.797-.678-.3-.658-.3-1.087c0-.37.07-.673.214-.912s.333-.427.575-.567a3 3 0 0 1 .809-.315c.3-.07.603-.125.912-.162l.955-.11c.244-.03.422-.08.533-.15s.166-.18.166-.332v-.03c0-.372-.105-.66-.316-.865s-.517-.307-.928-.307c-.43 0-.768.095-1.015.286s-.413.396-.507.626l-1.197-.273c.142-.398.35-.72.622-.963s.592-.426.95-.537a3.71 3.71 0 0 1 1.129-.17c.262 0 .54.03.83.094a2.43 2.43 0 0 1 .827.332c.26.162.47.393.635.695s.247.686.247 1.163V44h-1.244v-.895h-.05c-.083.165-.206.327-.37.486s-.376.29-.635.396-.568.158-.93.158zm.277-1.023c.352 0 .654-.07.904-.21a1.47 1.47 0 0 0 .575-.546 1.42 1.42 0 0 0 .2-.729v-.844c-.045.045-.133.088-.264.128s-.274.07-.44.098l-.482.073-.392.05c-.247.03-.473.084-.677.158a1.16 1.16 0 0 0-.486.32c-.12.136-.18.318-.18.545 0 .315.117.554.35.716s.53.24.89.24zm6.924-3.01V44h-1.274v-6.545h1.223v1.065h.08c.15-.347.387-.625.708-.835s.73-.315 1.223-.315c.446 0 .836.094 1.172.28s.595.46.78.827.277.82.277 1.36V44h-1.274v-4c0-.474-.123-.845-.37-1.112s-.586-.405-1.018-.405c-.295 0-.558.064-.788.192a1.38 1.38 0 0 0-.542.563c-.13.244-.196.54-.196.886zm8.07 1.666l-.008-1.555h.22l2.608-2.77h1.526l-2.975 3.153h-.2L357.5 41.78zM356.33 44v-8.727h1.274V44h-1.274zm4.134 0l-2.344-3.11.878-.89 3.03 4h-1.564zm4.385.08c-.233 0-.433-.082-.6-.247s-.252-.37-.252-.605.084-.432.252-.597.367-.25.6-.25a.82.82 0 0 1 .601.251c.168.165.252.364.252.597a.81.81 0 0 1-.12.43.88.88 0 0 1-.306.307c-.128.077-.27.115-.427.115zm6.316.05c-.633 0-1.18-.144-1.636-.43a2.85 2.85 0 0 1-1.048-1.197c-.245-.51-.367-1.09-.367-1.747 0-.665.125-1.25.375-1.76s.603-.91 1.057-1.197 1-.43 1.607-.43c.497 0 .94.092 1.33.277a2.39 2.39 0 0 1 .942.767c.24.33.385.714.43 1.155h-1.24c-.068-.307-.224-.57-.468-.793s-.566-.332-.972-.332c-.355 0-.666.094-.933.28s-.47.45-.618.793-.222.744-.222 1.2c0 .477.073.89.218 1.236s.35.615.613.805a1.58 1.58 0 0 0 .942.285c.24 0 .46-.044.656-.132s.365-.22.5-.388.23-.37.285-.605h1.24c-.045.423-.183.8-.413 1.133s-.538.594-.925.784-.834.285-1.35.285zm7.81 0c-.614 0-1.15-.14-1.607-.422s-.812-.675-1.065-1.18-.38-1.097-.38-1.773.126-1.273.38-1.78a2.84 2.84 0 0 1 1.065-1.185c.458-.28.993-.422 1.607-.422s1.15.14 1.607.422a2.84 2.84 0 0 1 1.065 1.185c.253.508.38 1.102.38 1.78s-.126 1.267-.38 1.773-.608.9-1.065 1.18-.993.422-1.607.422zm.004-1.07c.398 0 .728-.105.99-.315a1.85 1.85 0 0 0 .579-.84c.128-.35.192-.734.192-1.155s-.064-.8-.192-1.15-.318-.635-.58-.848-.59-.32-.99-.32-.733.107-.997.32-.456.496-.584.848-.187.733-.187 1.15.062.805.187 1.155.323.63.584.84.597.315.997.315zm5.47.938v-6.545h1.223v1.065h.08c.137-.36.36-.642.67-.844s.68-.307 1.113-.307c.437 0 .804.102 1.1.307a1.8 1.8 0 0 1 .661.844h.068c.156-.35.405-.628.745-.835s.748-.315 1.22-.315c.594 0 1.078.186 1.453.558s.567.933.567 1.683V44h-1.274v-4.27c0-.443-.12-.764-.362-.963s-.53-.298-.865-.298c-.415 0-.738.128-.968.383s-.345.578-.345.976V44h-1.27v-4.35c0-.355-.1-.64-.332-.856s-.5-.324-.865-.324c-.242 0-.465.064-.67.192s-.365.3-.5.524-.183.484-.183.78V44h-1.275z" fill="#1757c2"/><path d="M33.98 216l.935-2.695h3.977l.93 2.695h1.63l-3.664-10.182h-1.775L32.348 216h1.63zm1.382-3.987l1.5-4.345h.08l1.5 4.345H35.36zm12.28.82c.005 1.298-.96 1.914-1.795 1.914-.92 0-1.556-.666-1.556-1.705v-4.678h-1.486v4.857c0 1.894 1.04 2.878 2.506 2.878 1.148 0 1.93-.606 2.282-1.42h.08V216h1.462v-7.636h-1.49v4.47zm7.053-4.47h-1.566v-1.83H51.64v1.83h-1.12v1.193h1.12v4.51c-.005 1.387 1.054 2.058 2.227 2.033.472-.005.79-.094.965-.16l-.268-1.228c-.1.02-.283.065-.522.065-.482 0-.915-.16-.915-1.02v-4.2h1.566v-1.193zm4.78 7.8c2.153 0 3.56-1.576 3.56-3.937 0-2.377-1.407-3.953-3.56-3.953s-3.56 1.576-3.56 3.953c0 2.36 1.407 3.937 3.56 3.937zm.005-1.248c-1.407 0-2.063-1.228-2.063-2.694s.656-2.705 2.063-2.705c1.397 0 2.053 1.243 2.053 2.705s-.656 2.694-2.053 2.694zm14.64-4.678c-.308-1.188-1.238-1.964-2.888-1.964-1.725 0-2.948.9-2.948 2.262 0 1.084.656 1.805 2.088 2.123l1.293.284c.736.164 1.08.492 1.08.97 0 .592-.63 1.054-1.606 1.054-.9 0-1.462-.383-1.64-1.134l-1.437.22c.25 1.352 1.372 2.113 3.087 2.113 1.844 0 3.122-.98 3.122-2.36 0-1.08-.686-1.745-2.088-2.07l-1.213-.278c-.84-.2-1.203-.482-1.198-1-.005-.587.63-1.005 1.477-1.005.925 0 1.352.513 1.526 1.025l1.347-.24zm5 5.926c1.805 0 2.973-1.084 3.137-2.57H80.81c-.19.825-.83 1.312-1.68 1.312-1.258 0-2.068-1.05-2.068-2.714 0-1.636.825-2.665 2.068-2.665.945 0 1.52.597 1.68 1.313h1.447c-.16-1.542-1.417-2.566-3.152-2.566-2.153 0-3.545 1.62-3.545 3.953 0 2.3 1.342 3.937 3.56 3.937zm6.95.015c1.263 0 1.974-.64 2.257-1.213h.06V216h1.452v-5.07c0-2.222-1.75-2.665-2.963-2.665-1.382 0-2.655.557-3.152 1.95l1.397.318c.22-.542.776-1.064 1.775-1.064.96 0 1.452.502 1.452 1.368v.034c0 .542-.557.532-1.93.69-1.447.17-2.928.547-2.928 2.282 0 1.502 1.13 2.327 2.58 2.327zm.323-1.193c-.84 0-1.447-.378-1.447-1.114 0-.795.706-1.08 1.566-1.193.482-.065 1.626-.194 1.84-.408v.985c0 .905-.72 1.73-1.96 1.73zm6.912-3.5c0-1.218.746-1.914 1.78-1.914 1.01 0 1.62.66 1.62 1.77V216h1.487v-4.857c0-1.89-1.04-2.88-2.6-2.88-1.148 0-1.9.532-2.252 1.343h-.094v-1.243h-1.427V216h1.486v-4.534zm8.367 0c0-1.218.746-1.914 1.78-1.914 1.01 0 1.62.66 1.62 1.77V216h1.486v-4.857c0-1.89-1.04-2.88-2.6-2.88-1.148 0-1.9.532-2.252 1.343h-.094v-1.243h-1.427V216h1.486v-4.534zm6.88 4.534h1.487v-7.636h-1.487V216zm.75-8.815c.512 0 .94-.397.94-.885s-.427-.89-.94-.89-.94.402-.94.89.423.885.94.885zm4.222 4.28c0-1.218.746-1.914 1.78-1.914 1.01 0 1.62.66 1.62 1.77V216h1.487v-4.857c0-1.89-1.04-2.88-2.6-2.88-1.15 0-1.9.532-2.252 1.343h-.095v-1.243h-1.427V216h1.487v-4.534zm10.082 7.542c1.944 0 3.446-.9 3.446-2.84v-7.805h-1.457v1.238h-.11c-.264-.473-.79-1.338-2.213-1.338-1.844 0-3.202 1.457-3.202 3.888 0 2.436 1.388 3.734 3.192 3.734 1.402 0 1.944-.79 2.213-1.278h.094v1.5c0 1.18-.82 1.7-1.95 1.7-1.238 0-1.72-.622-1.983-1.044l-1.278.527c.403.92 1.422 1.715 3.246 1.715zm-.015-4.355c-1.327 0-2.018-1.02-2.018-2.52 0-1.467.676-2.605 2.018-2.605 1.298 0 1.994 1.06 1.994 2.605 0 1.576-.71 2.52-1.994 2.52zm12.376 1.5c1.805 0 2.973-1.084 3.137-2.57h-1.447c-.19.825-.83 1.312-1.68 1.312-1.258 0-2.068-1.05-2.068-2.714 0-1.636.825-2.665 2.068-2.665.944 0 1.52.597 1.68 1.313h1.447c-.16-1.542-1.417-2.566-3.152-2.566-2.153 0-3.545 1.62-3.545 3.953 0 2.3 1.343 3.937 3.56 3.937zm5.666 2.7c1.228 0 2.01-.642 2.446-1.825l3.157-8.64-1.606-.015-1.934 5.926h-.08l-1.934-5.926h-1.59l2.794 7.735-.184.508c-.378.99-.9 1.078-1.725.855l-.358 1.218c.18.084.567.164 1.014.164zm7.123-2.844h1.452v-1.188h.124c.27.487.816 1.337 2.208 1.337 1.85 0 3.19-1.48 3.19-3.952s-1.362-3.933-3.206-3.933c-1.417 0-1.93.865-2.193 1.338h-.09v-3.784h-1.487V216zm1.457-3.818c0-1.596.696-2.655 1.994-2.655 1.347 0 2.023 1.138 2.023 2.655 0 1.53-.696 2.7-2.023 2.7-1.278 0-1.994-1.093-1.994-2.7zm10.48 3.972c1.665 0 2.844-.82 3.182-2.063l-1.407-.254c-.27.72-.915 1.09-1.76 1.09-1.273 0-2.128-.825-2.168-2.297h5.43v-.527c0-2.76-1.65-3.838-3.38-3.838-2.127 0-3.53 1.62-3.53 3.968 0 2.37 1.382 3.922 3.634 3.922zm-2.148-4.638c.06-1.084.845-2.024 2.053-2.024 1.154 0 1.9.855 1.914 2.024h-3.967zm7.073 4.484h1.487v-4.663c0-1 .77-1.72 1.825-1.72.308 0 .656.055.775.1v-1.422c-.15-.02-.442-.035-.63-.035-.895 0-1.66.507-1.94 1.328h-.08v-1.213h-1.437V216zm14.8-5.772c-.308-1.188-1.238-1.964-2.89-1.964-1.725 0-2.948.9-2.948 2.262 0 1.084.657 1.805 2.088 2.123l1.293.284c.736.164 1.08.492 1.08.97 0 .592-.632 1.054-1.606 1.054-.9 0-1.462-.383-1.64-1.134l-1.436.22c.248 1.352 1.372 2.113 3.087 2.113 1.844 0 3.122-.98 3.122-2.36 0-1.08-.686-1.745-2.088-2.07l-1.213-.278c-.84-.2-1.203-.482-1.198-1-.005-.587.63-1.005 1.476-1.005.925 0 1.353.513 1.527 1.025l1.347-.24zm5.075 5.926c1.665 0 2.843-.82 3.18-2.063l-1.406-.254c-.27.72-.915 1.09-1.76 1.09-1.273 0-2.128-.825-2.168-2.297h5.43v-.527c0-2.76-1.65-3.838-3.38-3.838-2.128 0-3.53 1.62-3.53 3.968 0 2.37 1.383 3.922 3.635 3.922zm-2.148-4.638c.06-1.084.845-2.024 2.053-2.024 1.154 0 1.91.855 1.914 2.024h-3.967zm10.3 4.638c1.805 0 2.973-1.084 3.137-2.57h-1.447c-.19.825-.83 1.312-1.68 1.312-1.258 0-2.068-1.05-2.068-2.714 0-1.636.825-2.665 2.068-2.665.944 0 1.52.597 1.68 1.313h1.447c-.16-1.542-1.417-2.566-3.152-2.566-2.153 0-3.545 1.62-3.545 3.953 0 2.3 1.343 3.937 3.56 3.937zm9.564-3.32c.005 1.298-.96 1.914-1.795 1.914-.92 0-1.556-.666-1.556-1.705v-4.678h-1.486v4.857c0 1.894 1.04 2.878 2.505 2.878 1.15 0 1.93-.606 2.282-1.42h.08V216h1.46v-7.636h-1.49v4.47zm3.49 3.167h1.486v-4.663c0-1 .77-1.72 1.825-1.72.308 0 .656.055.775.1v-1.422c-.15-.02-.442-.035-.63-.035-.895 0-1.66.507-1.94 1.328h-.08v-1.213h-1.437V216zm5.373 0h1.486v-7.636h-1.486V216zm.75-8.815c.512 0 .94-.397.94-.885s-.427-.89-.94-.89-.94.402-.94.89.423.885.94.885zm6.3 1.18h-1.566v-1.83h-1.487v1.83h-1.118v1.193h1.118v4.51c-.005 1.387 1.054 2.058 2.228 2.033.472-.005.8-.094.964-.16l-.268-1.228c-.1.02-.284.065-.522.065-.483 0-.915-.16-.915-1.02v-4.2h1.566v-1.193zm2.584 10.48c1.228 0 2.008-.642 2.446-1.825l3.157-8.64-1.606-.015-1.934 5.926h-.08l-1.934-5.926h-1.6l2.794 7.735-.184.508c-.378.99-.9 1.078-1.725.855l-.358 1.218c.18.084.566.164 1.014.164zm10.71-2.844h1.486v-4.663c0-1 .77-1.72 1.825-1.72.308 0 .656.055.775.1v-1.422c-.15-.02-.442-.035-.63-.035-.895 0-1.66.507-1.94 1.328h-.08v-1.213h-1.436V216zm7.527.17c1.262 0 1.973-.64 2.257-1.213h.06V216h1.452v-5.07c0-2.222-1.75-2.665-2.963-2.665-1.382 0-2.655.557-3.152 1.95l1.397.318c.22-.542.776-1.064 1.775-1.064.96 0 1.452.502 1.452 1.368v.034c0 .542-.557.532-1.93.69-1.447.17-2.93.547-2.93 2.282 0 1.502 1.13 2.327 2.58 2.327zm.323-1.193c-.84 0-1.447-.378-1.447-1.114 0-.795.706-1.08 1.566-1.193.482-.065 1.626-.194 1.84-.408v.985c0 .905-.72 1.73-1.96 1.73zm9-6.612h-1.566v-1.83h-1.487v1.83h-1.12v1.193h1.12v4.51c-.005 1.387 1.054 2.058 2.227 2.033.473-.005.79-.094.965-.16l-.27-1.228c-.1.02-.283.065-.522.065-.482 0-.914-.16-.914-1.02v-4.2h1.566v-1.193zm1.644 7.636h1.486v-7.636h-1.486V216zm.75-8.815c.512 0 .94-.397.94-.885s-.427-.89-.94-.89-.94.402-.94.89.423.885.94.885zm4.222 4.28c0-1.218.746-1.914 1.78-1.914 1.01 0 1.62.66 1.62 1.77V216h1.487v-4.857c0-1.89-1.04-2.88-2.6-2.88-1.15 0-1.9.532-2.252 1.343h-.095v-1.243h-1.427V216h1.487v-4.534zm10.082 7.542c1.944 0 3.445-.9 3.445-2.84v-7.805h-1.456v1.238h-.1c-.263-.473-.8-1.338-2.212-1.338-1.844 0-3.202 1.457-3.202 3.888 0 2.436 1.387 3.734 3.192 3.734 1.402 0 1.944-.79 2.212-1.278h.095v1.5c0 1.18-.82 1.7-1.95 1.7-1.238 0-1.72-.622-1.984-1.044l-1.277.527c.402.92 1.422 1.715 3.246 1.715zm-.015-4.355c-1.327 0-2.018-1.02-2.018-2.52 0-1.467.676-2.605 2.018-2.605 1.298 0 1.994 1.06 1.994 2.605 0 1.576-.71 2.52-1.994 2.52z" fill="#131520"/><path d="M32.58 241.2h2.744v7.8h1.057v-7.8h2.744v-.937H32.58v.937zm9.046 3.852c0-1.142.73-1.79 1.72-1.79.946 0 1.517.596 1.517 1.636V249h1.006v-4.16c0-1.683-.895-2.472-2.233-2.472-1.03 0-1.62.43-1.926 1.108h-.085v-3.204H40.62V249h1.006v-3.938zM47.7 249h1.006v-6.545H47.7V249zm.51-7.636c.392 0 .716-.307.716-.682s-.324-.682-.716-.682-.716.307-.716.682.324.682.716.682zm6.973 2.556c-.315-.93-1.023-1.55-2.318-1.55-1.38 0-2.404.784-2.404 1.892 0 .904.537 1.51 1.74 1.8l1.09.256c.66.153.972.47.972.92 0 .563-.597 1.023-1.534 1.023-.822 0-1.338-.354-1.517-1.057l-.954.24c.234 1.112 1.15 1.704 2.49 1.704 1.52 0 2.557-.83 2.557-1.96 0-.912-.57-1.487-1.74-1.773l-.972-.238c-.776-.192-1.125-.452-1.125-.955 0-.562.597-.97 1.398-.97.878 0 1.24.485 1.415.937l.903-.256zm9.645 0c-.315-.93-1.023-1.55-2.318-1.55-1.38 0-2.403.784-2.403 1.892 0 .904.537 1.51 1.74 1.8l1.09.256c.66.153.972.47.972.92 0 .563-.597 1.023-1.534 1.023-.822 0-1.338-.354-1.517-1.057l-.955.24c.234 1.112 1.15 1.704 2.49 1.704 1.52 0 2.557-.83 2.557-1.96 0-.912-.57-1.487-1.74-1.773l-.972-.238c-.776-.192-1.125-.452-1.125-.955 0-.562.597-.97 1.398-.97.878 0 1.24.485 1.415.937l.903-.256zm4.292 5.216c1.45 0 2.403-.886 2.574-2.045H70.7c-.187.716-.784 1.142-1.568 1.142-1.193 0-1.96-.99-1.96-2.506 0-1.483.784-2.454 1.96-2.454.886 0 1.415.545 1.568 1.142h1.006c-.17-1.227-1.2-2.046-2.59-2.046-1.773 0-2.95 1.398-2.95 3.392 0 1.96 1.125 3.375 2.966 3.375zm6.703 0c1.773 0 2.966-1.346 2.966-3.375 0-2.045-1.193-3.392-2.966-3.392s-2.966 1.347-2.966 3.392c0 2.03 1.193 3.375 2.966 3.375zm0-.903c-1.347 0-1.96-1.16-1.96-2.472s.614-2.488 1.96-2.488 1.96 1.176 1.96 2.488-.614 2.472-1.96 2.472zm4.5.767h1.006v-4.142c0-.886.7-1.534 1.653-1.534a3.08 3.08 0 0 1 .614.068v-1.023l-.528-.017c-.784 0-1.466.443-1.704 1.09h-.068v-.988h-.972V249zm7 .136c1.33 0 2.3-.664 2.608-1.653l-.972-.273c-.256.682-.848 1.023-1.636 1.023-1.18 0-1.994-.763-2.04-2.165h4.75v-.426c0-2.437-1.45-3.273-2.812-3.273-1.773 0-2.95 1.398-2.95 3.41s1.16 3.358 3.05 3.358zm-2.04-3.937c.068-1.02.788-1.926 1.94-1.926 1.09 0 1.8.818 1.8 1.926h-3.73zm9.656 3.8h1.006v-6.545H94.96V249zm.51-7.636c.392 0 .716-.307.716-.682s-.324-.682-.716-.682-.716.307-.716.682.324.682.716.682zm6.973 2.556c-.316-.93-1.023-1.55-2.32-1.55-1.38 0-2.403.784-2.403 1.892 0 .904.537 1.51 1.74 1.8l1.1.256c.66.153.972.47.972.92 0 .563-.597 1.023-1.534 1.023-.823 0-1.338-.354-1.517-1.057l-.955.24c.234 1.112 1.15 1.704 2.49 1.704 1.52 0 2.557-.83 2.557-1.96 0-.912-.57-1.487-1.74-1.773l-.97-.238c-.775-.192-1.125-.452-1.125-.955 0-.562.597-.97 1.397-.97.878 0 1.24.485 1.415.937l.904-.256zm5.144 5.08h.972v-1.006h.12c.222.358.648 1.142 1.91 1.142 1.636 0 2.778-1.312 2.778-3.392 0-2.062-1.142-3.375-2.795-3.375-1.278 0-1.67.784-1.892 1.125h-.085v-3.22h-1.006V249zm.99-3.273c0-1.466.647-2.454 1.875-2.454 1.278 0 1.91 1.074 1.91 2.454 0 1.398-.648 2.506-1.91 2.506-1.21 0-1.875-1.023-1.875-2.506zm8.254 3.426c1.142 0 1.74-.613 1.943-1.04h.05V249h1.006v-4.312c0-2.08-1.585-2.32-2.42-2.32-.99 0-2.114.34-2.625 1.534l.954.34c.222-.477.746-.988 1.705-.988.924 0 1.38.5 1.38 1.33v.034c0 .486-.494.443-1.687.597-1.215.158-2.54.426-2.54 1.926 0 1.278.99 2.01 2.233 2.01zm.153-.903c-.8 0-1.38-.358-1.38-1.057 0-.767.7-1.005 1.483-1.108.426-.05 1.568-.17 1.738-.375v.92c0 .818-.647 1.62-1.84 1.62zm9.32-4.33c-.315-.93-1.023-1.55-2.318-1.55-1.38 0-2.404.784-2.404 1.892 0 .904.537 1.51 1.74 1.8l1.09.256c.66.153.97.47.97.92 0 .563-.596 1.023-1.534 1.023-.822 0-1.338-.354-1.517-1.057l-.954.24c.234 1.112 1.15 1.704 2.488 1.704 1.522 0 2.557-.83 2.557-1.96 0-.912-.57-1.487-1.738-1.773l-.972-.238c-.776-.192-1.125-.452-1.125-.955 0-.562.597-.97 1.398-.97.878 0 1.24.485 1.415.937l.903-.256zm4.377 5.216c1.33 0 2.302-.664 2.608-1.653l-.97-.273c-.256.682-.848 1.023-1.637 1.023-1.18 0-1.994-.763-2.04-2.165h4.752v-.426c0-2.437-1.45-3.273-2.813-3.273-1.773 0-2.95 1.398-2.95 3.41s1.16 3.358 3.05 3.358zm-2.04-3.937c.068-1.02.79-1.926 1.94-1.926 1.09 0 1.8.818 1.8 1.926h-3.73zm8.753 3.937c1.26 0 1.688-.784 1.91-1.142h.12V249h.972v-8.727h-1.006v3.22h-.085c-.22-.34-.613-1.125-1.892-1.125-1.653 0-2.795 1.313-2.795 3.375 0 2.08 1.142 3.392 2.778 3.392zm.136-.903c-1.26 0-1.91-1.108-1.91-2.506 0-1.38.63-2.454 1.91-2.454 1.228 0 1.875.988 1.875 2.454 0 1.483-.664 2.506-1.875 2.506zm10.88.903c1.772 0 2.966-1.346 2.966-3.375 0-2.045-1.194-3.392-2.966-3.392s-2.966 1.347-2.966 3.392c0 2.03 1.193 3.375 2.966 3.375zm0-.903c-1.347 0-1.96-1.16-1.96-2.472s.614-2.488 1.96-2.488 1.96 1.176 1.96 2.488-.614 2.472-1.96 2.472zm5.506-3.17c0-1.142.708-1.79 1.67-1.79.933 0 1.5.61 1.5 1.636V249h1.006v-4.16c0-1.67-.89-2.472-2.216-2.472-.99 0-1.603.443-1.91 1.108h-.086v-1.022h-.97V249h1.005v-3.938zm9.39 3.938h1.006v-4.142c0-.886.7-1.534 1.653-1.534a3.08 3.08 0 0 1 .614.068v-1.023l-.528-.017c-.785 0-1.466.443-1.705 1.09h-.068v-.988h-.972V249zm8.6-2.676c0 1.227-.937 1.8-1.687 1.8-.836 0-1.432-.614-1.432-1.57v-4.1h-1.006v4.16c0 1.67.886 2.47 2.114 2.47.988 0 1.636-.528 1.943-1.193h.068V249h1.006v-6.545h-1.006v3.87zm3.853-1.262c0-1.142.708-1.79 1.67-1.79.933 0 1.5.61 1.5 1.636V249h1.006v-4.16c0-1.67-.89-2.472-2.216-2.472-.99 0-1.603.443-1.91 1.108h-.086v-1.022h-.97V249h1.005v-3.938zm7.02 0c0-1.142.707-1.79 1.67-1.79.934 0 1.5.61 1.5 1.636V249h1.006v-4.16c0-1.67-.89-2.472-2.216-2.472-.988 0-1.602.443-1.91 1.108h-.085v-1.022h-.972V249h1.006v-3.938zM188.78 249h1.006v-6.545h-1.006V249zm.51-7.636c.392 0 .716-.307.716-.682s-.324-.682-.716-.682-.716.307-.716.682.324.682.716.682zm3.342 3.698c0-1.142.708-1.79 1.67-1.79.933 0 1.5.61 1.5 1.636V249h1.005v-4.16c0-1.67-.9-2.472-2.216-2.472-.988 0-1.602.443-1.91 1.108h-.085v-1.022h-.972V249h1.006v-3.938zm8.656 6.53c1.568 0 2.83-.716 2.83-2.403v-6.733h-.972v1.04h-.102c-.222-.34-.63-1.125-1.91-1.125-1.654 0-2.796 1.313-2.796 3.324 0 2.046 1.193 3.205 2.78 3.205 1.278 0 1.687-.75 1.91-1.108h.085v1.33c0 1.09-.767 1.586-1.824 1.586-1.19 0-1.606-.627-1.875-.99l-.8.562c.41.686 1.214 1.313 2.676 1.313zm-.034-3.597c-1.26 0-1.91-.954-1.91-2.318 0-1.33.63-2.403 1.91-2.403 1.227 0 1.875.988 1.875 2.403 0 1.45-.665 2.318-1.875 2.318zm10.006 1.16c1.142 0 1.738-.613 1.943-1.04h.05V249h1.006v-4.312c0-2.08-1.586-2.32-2.42-2.32-.988 0-2.113.34-2.625 1.534l.955.34c.22-.477.745-.988 1.704-.988.925 0 1.38.5 1.38 1.33v.034c0 .486-.494.443-1.688.597-1.214.158-2.54.426-2.54 1.926 0 1.278.988 2.01 2.233 2.01zm.153-.903c-.8 0-1.38-.358-1.38-1.057 0-.767.7-1.005 1.483-1.108.426-.05 1.57-.17 1.74-.375v.92c0 .818-.648 1.62-1.84 1.62zm10.716.886c1.45 0 2.404-.886 2.574-2.045H223.7c-.188.716-.785 1.142-1.57 1.142-1.193 0-1.96-.99-1.96-2.506 0-1.483.784-2.454 1.96-2.454.887 0 1.415.545 1.57 1.142h1.005c-.17-1.227-1.2-2.046-2.59-2.046-1.772 0-2.95 1.398-2.95 3.392 0 1.96 1.125 3.375 2.966 3.375zm6.703 0c1.773 0 2.966-1.346 2.966-3.375 0-2.045-1.193-3.392-2.966-3.392s-2.965 1.347-2.965 3.392c0 2.03 1.193 3.375 2.965 3.375zm0-.903c-1.346 0-1.96-1.16-1.96-2.472s.614-2.488 1.96-2.488 1.96 1.176 1.96 2.488-.614 2.472-1.96 2.472zm4.502.767h1.005v-4.09c0-.96.7-1.636 1.483-1.636.763 0 1.296.498 1.296 1.244V249h1.022v-4.26c0-.844.53-1.466 1.45-1.466.716 0 1.33.38 1.33 1.346V249h1.005v-4.38c0-1.538-.826-2.25-1.994-2.25-.937 0-1.623.43-1.96 1.108h-.068c-.324-.7-.895-1.108-1.756-1.108-.852 0-1.483.41-1.756 1.108h-.085v-1.022h-.97V249zm10.43 2.455h1.006v-3.46h.085c.222.358.648 1.142 1.91 1.142 1.637 0 2.78-1.312 2.78-3.392 0-2.062-1.142-3.375-2.796-3.375-1.278 0-1.67.784-1.892 1.125h-.12v-1.04h-.972v9zm.99-5.728c0-1.466.648-2.454 1.875-2.454 1.278 0 1.91 1.074 1.91 2.454 0 1.398-.648 2.506-1.91 2.506-1.2 0-1.875-1.023-1.875-2.506zm6.324 3.273h1.005v-4.142c0-.886.7-1.534 1.654-1.534.268 0 .545.05.613.068v-1.023l-.528-.017c-.784 0-1.466.443-1.705 1.09h-.068v-.988h-.97V249zm7 .136c1.33 0 2.3-.664 2.608-1.653l-.972-.273c-.256.682-.848 1.023-1.636 1.023-1.18 0-1.995-.763-2.042-2.165h4.752v-.426c0-2.437-1.45-3.273-2.813-3.273-1.772 0-2.948 1.398-2.948 3.41s1.16 3.358 3.05 3.358zm-2.042-3.937c.07-1.02.79-1.926 1.94-1.926 1.09 0 1.8.818 1.8 1.926h-3.73zm7.287-.137c0-1.142.73-1.79 1.722-1.79.946 0 1.517.596 1.517 1.636V249h1.006v-4.16c0-1.683-.895-2.472-2.233-2.472-1.032 0-1.62.43-1.926 1.108h-.086v-3.204h-1.005V249h1.005v-3.938zm8.83 4.074c1.33 0 2.3-.664 2.608-1.653l-.972-.273c-.255.682-.848 1.023-1.636 1.023-1.18 0-1.994-.763-2.04-2.165h4.75v-.426c0-2.437-1.45-3.273-2.812-3.273-1.773 0-2.95 1.398-2.95 3.41s1.16 3.358 3.05 3.358zm-2.04-3.937c.068-1.02.788-1.926 1.94-1.926 1.09 0 1.79.818 1.79 1.926h-3.728zm7.287-.137c0-1.142.707-1.79 1.67-1.79.933 0 1.5.61 1.5 1.636V249h1.006v-4.16c0-1.67-.89-2.472-2.216-2.472-.99 0-1.602.443-1.91 1.108h-.085v-1.022h-.972V249h1.006v-3.938zm10.65-1.142c-.316-.93-1.023-1.55-2.318-1.55-1.38 0-2.404.784-2.404 1.892 0 .904.537 1.51 1.74 1.8l1.09.256c.66.153.97.47.97.92 0 .563-.596 1.023-1.534 1.023-.822 0-1.338-.354-1.517-1.057l-.954.24c.234 1.112 1.15 1.704 2.488 1.704 1.522 0 2.557-.83 2.557-1.96 0-.912-.57-1.487-1.738-1.773l-.972-.238c-.776-.192-1.125-.452-1.125-.955 0-.562.597-.97 1.398-.97.877 0 1.24.485 1.414.937l.904-.256zM289.7 249h1.006v-6.545H289.7V249zm.51-7.636c.392 0 .716-.307.716-.682s-.324-.682-.716-.682-.716.307-.716.682.324.682.716.682zm7.69 1.09h-1.09l-1.807 5.215h-.068l-1.807-5.215h-1.09l2.42 6.545h1.022l2.42-6.545zm3.837 6.68c1.33 0 2.3-.664 2.608-1.653l-.97-.273c-.256.682-.848 1.023-1.637 1.023-1.18 0-1.994-.763-2.04-2.165h4.752v-.426c0-2.437-1.45-3.273-2.813-3.273-1.773 0-2.95 1.398-2.95 3.41s1.16 3.358 3.05 3.358zm-2.04-3.937c.068-1.02.788-1.926 1.94-1.926 1.09 0 1.8.818 1.8 1.926h-3.73zm14.293-1.28c-.316-.93-1.023-1.55-2.318-1.55-1.38 0-2.404.784-2.404 1.892 0 .904.537 1.51 1.74 1.8l1.09.256c.66.153.97.47.97.92 0 .563-.596 1.023-1.534 1.023-.822 0-1.338-.354-1.517-1.057l-.954.24c.234 1.112 1.15 1.704 2.488 1.704 1.52 0 2.557-.83 2.557-1.96 0-.912-.57-1.487-1.74-1.773l-.97-.238c-.776-.192-1.125-.452-1.125-.955 0-.562.596-.97 1.398-.97.877 0 1.24.485 1.414.937l.904-.256zm5.758 2.404c0 1.227-.938 1.8-1.688 1.8-.835 0-1.43-.614-1.43-1.57v-4.1h-1.006v4.16c0 1.67.886 2.47 2.113 2.47.99 0 1.637-.528 1.944-1.193h.068V249h1.006v-6.545h-1.006v3.87zm2.848 2.676h1.005v-6.545h-1.005V249zm.51-7.636c.392 0 .716-.307.716-.682s-.324-.682-.716-.682-.716.307-.716.682.324.682.716.682zm5.183 1.09h-1.398v-1.57h-1.006v1.57h-.988v.852h.988v4.09c0 1.142.92 1.687 1.773 1.687.375 0 .614-.068.75-.12l-.204-.904c-.086.018-.222.052-.444.052-.443 0-.87-.137-.87-.99v-3.818h1.398v-.852zm4.187 6.68c1.33 0 2.3-.664 2.608-1.653l-.972-.273c-.256.682-.848 1.023-1.636 1.023-1.18 0-1.995-.763-2.042-2.165h4.752v-.426c0-2.437-1.45-3.273-2.813-3.273-1.772 0-2.95 1.398-2.95 3.41s1.16 3.358 3.052 3.358zm-2.042-3.937c.07-1.02.79-1.926 1.94-1.926 1.09 0 1.8.818 1.8 1.926h-3.73zm12.316 3.937c1.772 0 2.966-1.346 2.966-3.375 0-2.045-1.194-3.392-2.966-3.392s-2.966 1.347-2.966 3.392c0 2.03 1.193 3.375 2.966 3.375zm0-.903c-1.347 0-1.96-1.16-1.96-2.472s.614-2.488 1.96-2.488 1.96 1.176 1.96 2.488-.614 2.472-1.96 2.472zm7.416-5.778H348.7v-.665c0-.648.272-.99.937-.99.3 0 .46.068.563.102l.29-.87c-.153-.068-.46-.17-.954-.17-.938 0-1.84.562-1.84 1.687v.904h-1.057v.852h1.057V249h1.006v-5.693h1.466v-.852zm-315.31 22.698c1.142 0 1.74-.613 1.943-1.04h.05V265h1.006v-4.312c0-2.08-1.585-2.32-2.42-2.32-.99 0-2.114.34-2.625 1.534l.955.34c.222-.477.746-.988 1.705-.988.925 0 1.38.5 1.38 1.33v.034c0 .486-.494.443-1.687.597-1.215.158-2.54.426-2.54 1.926 0 1.278.99 2.01 2.233 2.01zm.153-.903c-.8 0-1.38-.358-1.38-1.057 0-.767.7-1.005 1.483-1.108.426-.05 1.568-.17 1.74-.375v.92c0 .818-.648 1.62-1.84 1.62zm8.807-1.926c0 1.227-.937 1.8-1.687 1.8-.835 0-1.432-.614-1.432-1.57v-4.1h-1.006v4.16c0 1.67.886 2.47 2.114 2.47.99 0 1.636-.528 1.943-1.193h.068V265h1.006v-6.545h-1.006v3.87zm5.694-3.87h-1.398v-1.57h-1.006v1.57h-.99v.852h.99v4.09c0 1.142.92 1.687 1.773 1.687.375 0 .614-.068.75-.12l-.204-.904c-.085.018-.222.052-.443.052-.443 0-.87-.137-.87-.99v-3.818H49.5v-.852zm4.102 6.68c1.773 0 2.966-1.346 2.966-3.375 0-2.045-1.193-3.392-2.966-3.392s-2.966 1.347-2.966 3.392c0 2.03 1.193 3.375 2.966 3.375zm0-.903c-1.347 0-1.96-1.16-1.96-2.472s.614-2.488 1.96-2.488 1.96 1.176 1.96 2.488-.614 2.472-1.96 2.472zm4.5.767H59.1v-4.09c0-.96.7-1.636 1.483-1.636.763 0 1.295.498 1.295 1.244V265h1.023v-4.26c0-.844.528-1.466 1.45-1.466.716 0 1.33.38 1.33 1.346V265h1.006v-4.38c0-1.538-.827-2.25-1.994-2.25-.937 0-1.623.43-1.96 1.108h-.068c-.324-.7-.895-1.108-1.756-1.108-.852 0-1.483.41-1.756 1.108h-.085v-1.022h-.972V265zm12.356.153c1.142 0 1.74-.613 1.943-1.04h.05V265h1.006v-4.312c0-2.08-1.585-2.32-2.42-2.32-.99 0-2.114.34-2.625 1.534l.955.34c.222-.477.746-.988 1.704-.988.925 0 1.38.5 1.38 1.33v.034c0 .486-.494.443-1.687.597-1.215.158-2.54.426-2.54 1.926 0 1.278.99 2.01 2.233 2.01zm.153-.903c-.8 0-1.38-.358-1.38-1.057 0-.767.7-1.005 1.483-1.108.426-.05 1.568-.17 1.74-.375v.92c0 .818-.648 1.62-1.84 1.62zm7.53-5.795h-1.398v-1.57H75.74v1.57h-.99v.852h.99v4.09c0 1.142.92 1.687 1.773 1.687.375 0 .614-.068.75-.12l-.205-.904c-.085.018-.222.052-.443.052-.443 0-.87-.137-.87-.99v-3.818h1.398v-.852zm4.187 6.68c1.33 0 2.3-.664 2.608-1.653l-.972-.273c-.256.682-.848 1.023-1.636 1.023-1.18 0-1.994-.763-2.04-2.165h4.752v-.426c0-2.437-1.45-3.273-2.812-3.273-1.773 0-2.95 1.398-2.95 3.41s1.16 3.358 3.05 3.358zm-2.04-3.937c.068-1.02.788-1.926 1.94-1.926 1.09 0 1.8.818 1.8 1.926h-3.73zm8.753 3.937c1.26 0 1.688-.784 1.91-1.142h.12V265h.972v-8.727h-1.006v3.22h-.085c-.222-.34-.614-1.125-1.892-1.125-1.653 0-2.795 1.313-2.795 3.375 0 2.08 1.142 3.392 2.778 3.392zm.136-.903c-1.26 0-1.91-1.108-1.91-2.506 0-1.38.63-2.454 1.91-2.454 1.227 0 1.875.988 1.875 2.454 0 1.483-.665 2.506-1.875 2.506zm11.067-5.778h-1.398v-1.57H97.84v1.57h-.99v.852h.99v4.09c0 1.142.92 1.687 1.773 1.687.375 0 .614-.068.75-.12l-.205-.904c-.085.018-.22.052-.443.052-.443 0-.87-.137-.87-.99v-3.818h1.398v-.852zm4.186 6.68c1.33 0 2.302-.664 2.608-1.653l-.97-.273c-.256.682-.848 1.023-1.637 1.023-1.18 0-1.994-.763-2.04-2.165h4.752v-.426c0-2.437-1.45-3.273-2.813-3.273-1.773 0-2.95 1.398-2.95 3.41s1.16 3.358 3.05 3.358zm-2.04-3.937c.068-1.02.79-1.926 1.94-1.926 1.09 0 1.8.818 1.8 1.926h-3.73zm10.918-1.28c-.316-.93-1.023-1.55-2.318-1.55-1.38 0-2.404.784-2.404 1.892 0 .904.537 1.51 1.74 1.8l1.09.256c.66.153.97.47.97.92 0 .563-.596 1.023-1.534 1.023-.822 0-1.338-.354-1.517-1.057l-.954.24c.234 1.112 1.15 1.704 2.488 1.704 1.522 0 2.557-.83 2.557-1.96 0-.912-.57-1.487-1.738-1.773l-.972-.238c-.776-.192-1.125-.452-1.125-.955 0-.562.597-.97 1.398-.97.877 0 1.24.485 1.414.937l.904-.256zm4.48-1.465h-1.398v-1.57h-1.006v1.57h-.988v.852h.988v4.09c0 1.142.92 1.687 1.773 1.687.375 0 .614-.068.75-.12l-.205-.904c-.085.018-.22.052-.443.052-.443 0-.87-.137-.87-.99v-3.818h1.398v-.852zm6.032 1.465c-.316-.93-1.023-1.55-2.32-1.55-1.38 0-2.403.784-2.403 1.892 0 .904.537 1.51 1.74 1.8l1.1.256c.66.153.972.47.972.92 0 .563-.597 1.023-1.534 1.023-.822 0-1.338-.354-1.517-1.057l-.955.24c.235 1.112 1.15 1.704 2.49 1.704 1.52 0 2.557-.83 2.557-1.96 0-.912-.57-1.487-1.74-1.773l-.97-.238c-.776-.192-1.125-.452-1.125-.955 0-.562.596-.97 1.397-.97.878 0 1.24.485 1.415.937l.904-.256zm6.934 5.233c1.142 0 1.738-.613 1.943-1.04h.05V265h1.006v-4.312c0-2.08-1.585-2.32-2.42-2.32-.988 0-2.113.34-2.625 1.534l.955.34c.222-.477.746-.988 1.704-.988.925 0 1.38.5 1.38 1.33v.034c0 .486-.494.443-1.687.597-1.215.158-2.54.426-2.54 1.926 0 1.278.99 2.01 2.233 2.01zm.153-.903c-.8 0-1.38-.358-1.38-1.057 0-.767.698-1.005 1.483-1.108.426-.05 1.568-.17 1.738-.375v.92c0 .818-.648 1.62-1.84 1.62zm7.324 3.34c1.57 0 2.83-.716 2.83-2.403v-6.733h-.972v1.04h-.102c-.22-.34-.63-1.125-1.91-1.125-1.653 0-2.795 1.313-2.795 3.324 0 2.046 1.193 3.205 2.778 3.205 1.278 0 1.688-.75 1.91-1.108h.085v1.33c0 1.09-.767 1.586-1.824 1.586-1.188 0-1.606-.627-1.875-.99l-.8.562c.41.686 1.215 1.313 2.676 1.313zm-.034-3.597c-1.26 0-1.91-.954-1.91-2.318 0-1.33.63-2.403 1.91-2.403 1.228 0 1.875.988 1.875 2.403 0 1.45-.664 2.318-1.875 2.318zm6.63 1.16c1.142 0 1.74-.613 1.943-1.04h.05V265h1.006v-4.312c0-2.08-1.585-2.32-2.42-2.32-.99 0-2.114.34-2.625 1.534l.954.34c.222-.477.746-.988 1.705-.988.924 0 1.38.5 1.38 1.33v.034c0 .486-.494.443-1.687.597-1.215.158-2.54.426-2.54 1.926 0 1.278.99 2.01 2.233 2.01zm.153-.903c-.8 0-1.38-.358-1.38-1.057 0-.767.7-1.005 1.483-1.108.426-.05 1.568-.17 1.738-.375v.92c0 .818-.647 1.62-1.84 1.62zm4.683.75h1.005v-6.545h-1.005V265zm.51-7.636c.392 0 .716-.307.716-.682s-.324-.682-.716-.682-.716.307-.716.682.324.682.716.682zm3.342 3.698c0-1.142.707-1.79 1.67-1.79.934 0 1.5.61 1.5 1.636V265h1.006v-4.16c0-1.67-.89-2.472-2.216-2.472-.988 0-1.602.443-1.91 1.108h-.085v-1.022h-.972V265h1.006v-3.938zm10.65-1.142c-.315-.93-1.023-1.55-2.318-1.55-1.38 0-2.403.784-2.403 1.892 0 .904.537 1.51 1.738 1.8l1.09.256c.66.153.972.47.972.92 0 .563-.597 1.023-1.534 1.023-.823 0-1.338-.354-1.517-1.057l-.955.24c.234 1.112 1.15 1.704 2.49 1.704 1.52 0 2.557-.83 2.557-1.96 0-.912-.572-1.487-1.74-1.773l-.972-.238c-.775-.192-1.125-.452-1.125-.955 0-.562.597-.97 1.398-.97.878 0 1.24.485 1.415.937l.903-.256zm4.48-1.465h-1.398v-1.57h-1.005v1.57h-.99v.852h.99v4.09c0 1.142.92 1.687 1.772 1.687.375 0 .614-.068.75-.12l-.204-.904c-.086.018-.222.052-.443.052-.444 0-.87-.137-.87-.99v-3.818h1.398v-.852zm7.734 0h-1.397v-1.57h-1.006v1.57h-.99v.852h.99v4.09c0 1.142.92 1.687 1.773 1.687a2.1 2.1 0 0 0 .75-.119l-.205-.904c-.085.018-.22.052-.443.052-.443 0-.87-.137-.87-.99v-3.818h1.397v-.852zm2.66 2.607c0-1.142.73-1.79 1.722-1.79.946 0 1.517.596 1.517 1.636V265h1.006v-4.16c0-1.683-.895-2.472-2.233-2.472-1.03 0-1.62.43-1.926 1.108h-.086v-3.204h-1.005V265h1.005v-3.938zm8.83 4.074c1.33 0 2.3-.664 2.608-1.653l-.972-.273c-.255.682-.848 1.023-1.636 1.023-1.18 0-1.994-.763-2.04-2.165h4.75v-.426c0-2.437-1.45-3.273-2.812-3.273-1.773 0-2.95 1.398-2.95 3.41s1.16 3.358 3.05 3.358zm-2.04-3.937c.068-1.02.788-1.926 1.94-1.926 1.09 0 1.79.818 1.79 1.926h-3.728zm12.128 3.937c1.26 0 1.687-.784 1.91-1.142h.12V265h.972v-8.727h-1.006v3.22h-.085c-.222-.34-.614-1.125-1.892-1.125-1.654 0-2.796 1.313-2.796 3.375 0 2.08 1.142 3.392 2.78 3.392zm.136-.903c-1.26 0-1.91-1.108-1.91-2.506 0-1.38.63-2.454 1.91-2.454 1.227 0 1.875.988 1.875 2.454 0 1.483-.665 2.506-1.875 2.506zm7.504.903c1.773 0 2.966-1.346 2.966-3.375 0-2.045-1.193-3.392-2.966-3.392s-2.966 1.347-2.966 3.392c0 2.03 1.193 3.375 2.966 3.375zm0-.903c-1.346 0-1.96-1.16-1.96-2.472s.614-2.488 1.96-2.488 1.96 1.176 1.96 2.488-.613 2.472-1.96 2.472zm4.5.767h1.006v-4.09c0-.96.7-1.636 1.483-1.636.763 0 1.295.498 1.295 1.244V265h1.023v-4.26c0-.844.528-1.466 1.45-1.466.716 0 1.33.38 1.33 1.346V265h1.006v-4.38c0-1.538-.827-2.25-1.994-2.25-.938 0-1.624.43-1.96 1.108h-.07c-.323-.7-.894-1.108-1.755-1.108-.853 0-1.483.41-1.756 1.108h-.085v-1.022h-.972V265zm12.356.153c1.142 0 1.74-.613 1.943-1.04h.05V265h1.006v-4.312c0-2.08-1.585-2.32-2.42-2.32-.99 0-2.114.34-2.625 1.534l.954.34c.222-.477.746-.988 1.705-.988.924 0 1.38.5 1.38 1.33v.034c0 .486-.494.443-1.687.597-1.215.158-2.54.426-2.54 1.926 0 1.278.99 2.01 2.233 2.01zm.153-.903c-.8 0-1.38-.358-1.38-1.057 0-.767.7-1.005 1.483-1.108.426-.05 1.568-.17 1.738-.375v.92c0 .818-.647 1.62-1.84 1.62zm4.683.75h1.005v-6.545h-1.005V265zm.51-7.636c.392 0 .716-.307.716-.682s-.324-.682-.716-.682-.716.307-.716.682.324.682.716.682zm3.342 3.698c0-1.142.707-1.79 1.67-1.79.934 0 1.5.61 1.5 1.636V265h1.006v-4.16c0-1.67-.89-2.472-2.216-2.472-.988 0-1.602.443-1.91 1.108h-.085v-1.022h-.972V265h1.006v-3.938zm10.65-1.142c-.315-.93-1.023-1.55-2.318-1.55-1.38 0-2.403.784-2.403 1.892 0 .904.537 1.51 1.738 1.8l1.09.256c.66.153.972.47.972.92 0 .563-.597 1.023-1.534 1.023-.823 0-1.338-.354-1.517-1.057l-.955.24c.234 1.112 1.15 1.704 2.49 1.704 1.52 0 2.557-.83 2.557-1.96 0-.912-.572-1.487-1.74-1.773l-.972-.238c-.775-.192-1.125-.452-1.125-.955 0-.562.597-.97 1.398-.97.878 0 1.24.485 1.415.937l.903-.256zm7.667 5.216c1.773 0 2.966-1.346 2.966-3.375 0-2.045-1.193-3.392-2.966-3.392s-2.965 1.347-2.965 3.392c0 2.03 1.193 3.375 2.965 3.375zm0-.903c-1.346 0-1.96-1.16-1.96-2.472s.614-2.488 1.96-2.488 1.96 1.176 1.96 2.488-.614 2.472-1.96 2.472zm5.762.767h.988l1.432-5.028h.103l1.43 5.028h.99l1.994-6.545H261.1l-1.414 4.994h-.068l-1.38-4.994h-1.074l-1.398 5.01h-.068l-1.415-5.01h-1.057L255.22 265zm9.273-3.938c0-1.142.707-1.79 1.67-1.79.933 0 1.5.61 1.5 1.636V265h1.006v-4.16c0-1.67-.89-2.472-2.216-2.472-.99 0-1.603.443-1.91 1.108h-.086v-1.022h-.97V265h1.006v-3.938zm8.758 4.074c1.33 0 2.3-.664 2.608-1.653l-.972-.273c-.256.682-.848 1.023-1.636 1.023-1.18 0-1.995-.763-2.04-2.165h4.75v-.426c0-2.437-1.45-3.273-2.813-3.273-1.772 0-2.948 1.398-2.948 3.41s1.16 3.358 3.05 3.358zm-2.04-3.937c.068-1.02.788-1.926 1.938-1.926 1.09 0 1.8.818 1.8 1.926H271.2zm8.752 3.937c1.262 0 1.688-.784 1.91-1.142h.12V265h.97v-8.727h-1.005v3.22h-.086c-.22-.34-.613-1.125-1.892-1.125-1.653 0-2.795 1.313-2.795 3.375 0 2.08 1.142 3.392 2.778 3.392zm.137-.903c-1.262 0-1.91-1.108-1.91-2.506 0-1.38.63-2.454 1.91-2.454 1.227 0 1.875.988 1.875 2.454 0 1.483-.665 2.506-1.875 2.506zm8.356.767h.972v-1.006h.12c.222.358.648 1.142 1.91 1.142 1.637 0 2.78-1.312 2.78-3.392 0-2.062-1.142-3.375-2.796-3.375-1.278 0-1.67.784-1.892 1.125h-.085v-3.22h-1.006V265zm.99-3.273c0-1.466.648-2.454 1.875-2.454 1.278 0 1.91 1.074 1.91 2.454 0 1.398-.648 2.506-1.91 2.506-1.2 0-1.875-1.023-1.875-2.506zm6.74 5.71c.908 0 1.552-.482 1.927-1.483l2.786-7.483-1.1-.017-1.807 5.215h-.068l-1.807-5.215h-1.09l2.42 6.58-.188.51c-.358.98-.818 1.074-1.55.887l-.256.886c.103.05.392.12.733.12zm12.06.153c1.568 0 2.83-.716 2.83-2.403v-6.733h-.972v1.04h-.102c-.222-.34-.63-1.125-1.91-1.125-1.654 0-2.796 1.313-2.796 3.324 0 2.046 1.193 3.205 2.78 3.205 1.278 0 1.687-.75 1.91-1.108h.085v1.33c0 1.09-.767 1.586-1.824 1.586-1.19 0-1.606-.627-1.875-.99l-.8.562c.41.686 1.214 1.313 2.676 1.313zm-.034-3.597c-1.26 0-1.91-.954-1.91-2.318 0-1.33.63-2.403 1.91-2.403 1.227 0 1.875.988 1.875 2.403 0 1.45-.665 2.318-1.875 2.318zm5.7-7.72h-1.005V265h1.005v-8.727zm4.5 8.863c1.773 0 2.966-1.346 2.966-3.375 0-2.045-1.193-3.392-2.966-3.392s-2.966 1.347-2.966 3.392c0 2.03 1.194 3.375 2.966 3.375zm0-.903c-1.346 0-1.96-1.16-1.96-2.472s.614-2.488 1.96-2.488 1.96 1.176 1.96 2.488-.614 2.472-1.96 2.472zm4.638.767h.97v-1.006h.12c.22.358.647 1.142 1.91 1.142 1.636 0 2.778-1.312 2.778-3.392 0-2.062-1.142-3.375-2.795-3.375-1.28 0-1.67.784-1.892 1.125h-.086v-3.22h-1.005V265zm.988-3.273c0-1.466.648-2.454 1.875-2.454 1.28 0 1.91 1.074 1.91 2.454 0 1.398-.647 2.506-1.91 2.506-1.2 0-1.875-1.023-1.875-2.506zm8.255 3.426c1.142 0 1.738-.613 1.943-1.04h.05V265h1.006v-4.312c0-2.08-1.586-2.32-2.42-2.32-.988 0-2.113.34-2.625 1.534l.955.34c.22-.477.745-.988 1.704-.988.925 0 1.38.5 1.38 1.33v.034c0 .486-.494.443-1.688.597-1.214.158-2.54.426-2.54 1.926 0 1.278.988 2.01 2.233 2.01zm.153-.903c-.8 0-1.38-.358-1.38-1.057 0-.767.7-1.005 1.483-1.108.426-.05 1.568-.17 1.74-.375v.92c0 .818-.648 1.62-1.84 1.62zm5.688-7.977h-1.006V265h1.006v-8.727zm1.978 8.727h.972v-1.006h.12c.222.358.648 1.142 1.91 1.142 1.637 0 2.78-1.312 2.78-3.392 0-2.062-1.142-3.375-2.796-3.375-1.278 0-1.67.784-1.892 1.125h-.085v-3.22h-1.006V265zm.99-3.273c0-1.466.648-2.454 1.875-2.454 1.278 0 1.91 1.074 1.91 2.454 0 1.398-.648 2.506-1.91 2.506-1.2 0-1.875-1.023-1.875-2.506zm8.254 3.426c1.142 0 1.74-.613 1.943-1.04h.05V265h1.006v-4.312c0-2.08-1.585-2.32-2.42-2.32-.99 0-2.114.34-2.625 1.534l.954.34c.222-.477.746-.988 1.705-.988.924 0 1.38.5 1.38 1.33v.034c0 .486-.494.443-1.687.597-1.215.158-2.54.426-2.54 1.926 0 1.278.99 2.01 2.233 2.01zm.154-.903c-.802 0-1.38-.358-1.38-1.057 0-.767.7-1.005 1.483-1.108.426-.05 1.568-.17 1.738-.375v.92c0 .818-.647 1.62-1.84 1.62zm5.687-3.188c0-1.142.708-1.79 1.67-1.79.933 0 1.5.61 1.5 1.636V265h1.006v-4.16c0-1.67-.89-2.472-2.216-2.472-.99 0-1.603.443-1.91 1.108h-.086v-1.022h-.97V265h1.005v-3.938zM361.22 265h1.006v-2.45l.703-.652 2.45 3.102h1.28l-2.97-3.75 2.765-2.795H365.2l-2.864 2.914h-.12v-5.096h-1.006V265zm7.26.068a.77.77 0 0 0 .767-.767.77.77 0 0 0-.767-.767.77.77 0 0 0-.768.767.77.77 0 0 0 .768.767zm5.23.068c1.45 0 2.404-.886 2.574-2.045h-1.005c-.188.716-.785 1.142-1.57 1.142-1.193 0-1.96-.99-1.96-2.506 0-1.483.784-2.454 1.96-2.454.887 0 1.415.545 1.57 1.142h1.005c-.17-1.227-1.2-2.046-2.59-2.046-1.772 0-2.95 1.398-2.95 3.392 0 1.96 1.125 3.375 2.966 3.375zm6.703 0c1.773 0 2.966-1.346 2.966-3.375 0-2.045-1.193-3.392-2.966-3.392s-2.965 1.347-2.965 3.392c0 2.03 1.193 3.375 2.965 3.375zm0-.903c-1.346 0-1.96-1.16-1.96-2.472s.614-2.488 1.96-2.488 1.96 1.176 1.96 2.488-.614 2.472-1.96 2.472zm4.502.767h1.005v-4.09c0-.96.7-1.636 1.483-1.636.763 0 1.296.498 1.296 1.244V265h1.022v-4.26c0-.844.53-1.466 1.45-1.466.716 0 1.33.38 1.33 1.346V265h1.005v-4.38c0-1.538-.826-2.25-1.994-2.25-.937 0-1.623.43-1.96 1.108h-.068c-.324-.7-.895-1.108-1.756-1.108-.852 0-1.483.41-1.756 1.108h-.085v-1.022h-.97V265z" fill="#5d6598"/><path stroke="#ecedf3" d="M0 79.5h440"/></svg>