<svg width="24" height="24" viewBox="0 0 24 24" fill="none" xmlns="http://www.w3.org/2000/svg">
<path d="M18.383 8H19.444C20.304 8 21 8.696 21 9.556V19.445C21 20.304 20.304 21 19.444 21H8.556C7.696 21 7 20.304 7 19.444V18" stroke="#1757C2" stroke-width="1.5" stroke-linecap="round" stroke-linejoin="round"/>
<path d="M4.00109 18H15.3131C15.9821 18 16.6061 17.666 16.9771 17.109L17.7111 16.007C18.1491 15.35 18.3831 14.578 18.3831 13.788V6C18.3831 4.895 17.4881 4 16.3831 4H6.38309C5.27809 4 4.38309 4.895 4.38309 6V13.056C4.38309 13.677 4.23809 14.289 3.96109 14.845L3.10709 16.553C2.77409 17.218 3.25809 18 4.00109 18Z" stroke="#1757C2" stroke-width="1.5" stroke-linecap="round" stroke-linejoin="round"/>
<path d="M13.6514 9.59302L10.8384 12.406L9.15039 10.719" stroke="#1757C2" stroke-width="1.5" stroke-linecap="round" stroke-linejoin="round"/>
<path d="M8.37988 3V5" stroke="#1757C2" stroke-width="1.5" stroke-linecap="round" stroke-linejoin="round"/>
<path d="M14.3799 3V5" stroke="#1757C2" stroke-width="1.5" stroke-linecap="round" stroke-linejoin="round"/>
</svg>
