<svg width="16" height="16" viewBox="0 0 16 16" fill="none" xmlns="http://www.w3.org/2000/svg">
<path d="M11.8467 6.73125C12.2123 5.7125 13.2654 2.76562 13.2654 1.82187C13.2654 0.990625 12.7748 0.29375 11.8998 0.29375C10.5061 0.29375 9.25606 4.40938 8.86543 5.39062C8.56231 4.5 7.14356 0 5.89356 0C4.92168 0 4.46543 0.715625 4.46543 1.61563C4.46543 2.71875 5.53418 5.57812 5.92168 6.67812C5.72481 6.60625 5.51231 6.54375 5.29668 6.54375C4.56543 6.54375 3.78731 7.45312 3.78731 8.1875C3.78731 8.46562 3.94043 8.85625 4.03731 9.11563C2.88418 9.42813 2.44043 10.1969 2.44043 11.3562C2.43731 13.6125 4.57481 16 7.58106 16C11.2686 16 13.5623 13.2313 13.5623 9.65938C13.5623 8.3125 13.3467 7.09687 11.8467 6.73125V6.73125ZM10.7404 3.375C10.8654 2.99062 11.3998 1.36563 11.8998 1.36563C12.1686 1.36563 12.2404 1.64375 12.2404 1.86563C12.2404 2.4625 11.0342 5.75937 10.7686 6.49062L9.70606 6.30312L10.7404 3.375V3.375ZM5.44668 1.50937C5.44668 1.1375 5.89981 0.08125 6.89356 2.98125L7.97481 6.11562C7.48731 6.075 7.10918 6.02188 6.86856 6.15938C6.52793 5.25938 5.44668 2.41875 5.44668 1.50937V1.50937ZM5.37481 7.625C6.29043 7.625 7.47168 10.5812 7.47168 10.9812C7.47168 11.1406 7.31856 11.3375 7.14043 11.3375C6.48731 11.3375 4.73731 8.93438 4.73731 8.28438C4.74043 8.04375 5.13418 7.625 5.37481 7.625V7.625ZM11.1342 13.4469C10.2248 14.4469 9.06231 14.9656 7.70606 14.9656C5.84981 14.9656 4.38418 13.9469 3.67793 12.2063C3.14356 10.85 3.79668 10.0719 4.32168 10.0719C4.67793 10.0719 6.01856 11.9562 6.01856 12.3562C6.01856 12.5094 5.77793 12.6156 5.65293 12.6156C5.14981 12.6156 4.95293 12.1312 4.05606 11.0094C3.12793 11.9375 4.69668 13.725 5.87793 13.725C6.69356 13.725 7.22481 12.9688 7.06543 12.4125C7.18106 12.4125 7.32481 12.4219 7.43106 12.3938C7.46543 13.2406 7.71543 14.25 8.73418 14.3219C8.73418 14.2937 8.79668 14.1 8.79668 14.0906C8.79668 13.5469 8.46543 13.0719 8.46543 12.5188C8.46543 11.6344 9.14356 10.7781 9.83106 10.2781C10.0811 10.0906 10.3842 9.975 10.6779 9.86875C10.9811 9.75312 11.3029 9.61875 11.5342 9.3875C11.4998 9.0375 11.3561 8.72812 11.0061 8.72812C10.1404 8.72812 7.23731 8.85313 7.23731 7.4875C7.23731 7.27813 7.24043 7.07812 7.78106 7.07812C8.79043 7.07812 11.3529 7.32813 12.1029 7.9875C12.6686 8.49063 12.8623 11.525 11.1342 13.4469V13.4469ZM8.05293 9.50937C8.35606 9.60625 8.66856 9.63437 8.98106 9.69687C8.74981 9.86562 8.54356 10.0719 8.34668 10.2937C8.25918 10.0281 8.15293 9.76875 8.05293 9.50937V9.50937Z" fill="#4A5078"/>
</svg>
