<svg width="16" height="16" viewBox="0 0 16 16" fill="none" xmlns="http://www.w3.org/2000/svg">
<g clip-path="url(#clip0)">
<path d="M8.00044 0.186524C6.09591 0.185958 4.25365 0.86487 2.80493 2.10118C1.35622 3.33749 0.396089 5.05009 0.0971964 6.93102C-0.201696 8.81196 0.180257 10.7378 1.17437 12.3623C2.16849 13.9868 3.70955 15.2034 5.52044 15.7932H5.71377C5.8081 15.799 5.90259 15.7848 5.99098 15.7513C6.07936 15.7179 6.15963 15.666 6.22646 15.5992C6.29328 15.5324 6.34514 15.4521 6.37858 15.3637C6.41202 15.2753 6.42629 15.1808 6.42044 15.0865V14.9465C6.42044 14.8332 6.42044 14.6799 6.42044 14.2199C6.4139 14.1762 6.39874 14.1342 6.37585 14.0965C6.35296 14.0587 6.3228 14.0259 6.28711 13.9999C6.24838 13.9685 6.20313 13.9463 6.15467 13.9347C6.10622 13.9232 6.0558 13.9227 6.00711 13.9332C4.22044 14.3199 3.84044 13.1999 3.81377 13.1265C3.59005 12.5339 3.1898 12.0243 2.66711 11.6665C2.63579 11.6394 2.60235 11.6149 2.56711 11.5932C2.64458 11.5515 2.73319 11.5352 2.82044 11.5465C2.988 11.5698 3.14667 11.6361 3.28102 11.7389C3.41537 11.8417 3.52082 11.9775 3.58711 12.1332C3.84501 12.5822 4.26703 12.9138 4.76438 13.058C5.26173 13.2022 5.79564 13.1479 6.25377 12.9065C6.30294 12.885 6.34618 12.852 6.37984 12.8102C6.4135 12.7684 6.43658 12.7191 6.44711 12.6665C6.47263 12.3582 6.60462 12.0683 6.82044 11.8465C6.86835 11.804 6.90299 11.7485 6.92019 11.6868C6.9374 11.6251 6.93645 11.5597 6.91746 11.4985C6.89846 11.4373 6.86223 11.3829 6.8131 11.3417C6.76397 11.3006 6.70403 11.2745 6.64044 11.2665C5.06044 11.0865 3.44711 10.5332 3.44711 7.80652C3.43379 7.12178 3.68444 6.45816 4.14711 5.95319C4.18972 5.90612 4.21801 5.84787 4.22863 5.78527C4.23926 5.72268 4.2318 5.65835 4.20711 5.59986C4.02183 5.08221 4.02419 4.51594 4.21377 3.99986C4.82966 4.10903 5.40773 4.37283 5.89377 4.76652C5.93393 4.79487 5.97996 4.81378 6.02844 4.82186C6.07692 4.82994 6.1266 4.82698 6.17377 4.81319C6.7693 4.65165 7.3834 4.56872 8.00044 4.56652C8.61979 4.56704 9.23631 4.64999 9.83377 4.81319C9.87997 4.82594 9.9284 4.82836 9.97564 4.8203C10.0229 4.81223 10.0678 4.79387 10.1071 4.76652C10.5939 4.37407 11.1717 4.11042 11.7871 3.99986C11.9686 4.51318 11.9686 5.0732 11.7871 5.58652C11.7624 5.64502 11.755 5.70935 11.7656 5.77194C11.7762 5.83453 11.8045 5.89279 11.8471 5.93986C12.305 6.43977 12.5553 7.09532 12.5471 7.77319C12.5471 10.4999 10.9271 11.0465 9.34044 11.2265C9.27536 11.2333 9.21372 11.2591 9.16319 11.3007C9.11266 11.3422 9.07549 11.3977 9.0563 11.4603C9.0371 11.5228 9.03675 11.5897 9.05527 11.6524C9.07378 11.7152 9.11036 11.7711 9.16044 11.8132C9.30811 11.9656 9.42095 12.1483 9.49116 12.3485C9.56137 12.5488 9.58728 12.7619 9.56711 12.9732V15.0932C9.56381 15.1974 9.58362 15.3011 9.62511 15.3967C9.6666 15.4924 9.72876 15.5777 9.80711 15.6465C9.90689 15.7212 10.0227 15.7716 10.1454 15.7936C10.2681 15.8156 10.3943 15.8086 10.5138 15.7732C12.3125 15.1714 13.8389 13.9502 14.8207 12.3273C15.8024 10.7044 16.1756 8.78548 15.8737 6.91294C15.5717 5.04041 14.6143 3.33606 13.1722 2.10402C11.7301 0.871979 9.89716 0.192394 8.00044 0.186524V0.186524Z" fill="#4A5078"/>
</g>
<defs>
<clipPath id="clip0">
<rect width="16" height="16" fill="white"/>
</clipPath>
</defs>
</svg>
