<svg width="24" height="24" viewBox="0 0 24 24" fill="none" xmlns="http://www.w3.org/2000/svg">
<path d="M19.583 4.40599C20.243 5.06499 20.243 6.13399 19.583 6.79299C18.923 7.45199 17.854 7.45199 17.194 6.79299C16.534 6.13399 16.534 5.06499 17.194 4.40599C17.854 3.74699 18.923 3.74699 19.583 4.40599Z" stroke="#1757C2" stroke-width="1.5" stroke-linecap="round" stroke-linejoin="round"/>
<path d="M4.431 19.594C3.771 18.935 3.771 17.866 4.431 17.207C5.091 16.548 6.16 16.548 6.82 17.207C7.48 17.866 7.48 18.935 6.82 19.594C6.16 20.253 5.09 20.253 4.431 19.594" stroke="#1757C2" stroke-width="1.5" stroke-linecap="round" stroke-linejoin="round"/>
<path d="M6.941 19.448C10.447 21.83 15.259 21.472 18.368 18.366C20.127 16.608 21.007 14.304 21.007 12C21.007 11.468 20.975 10.937 20.881 10.412" stroke="#1757C2" stroke-width="1.5" stroke-linecap="round" stroke-linejoin="round"/>
<path d="M3.133 13.588C3.039 13.063 3.007 12.532 3.007 12C3.007 9.696 3.887 7.392 5.646 5.634C8.754 2.528 13.567 2.17 17.073 4.552" stroke="#1757C2" stroke-width="1.5" stroke-linecap="round" stroke-linejoin="round"/>
<path d="M12 15.75C12 15.75 15 14.311 15 12.153V9.67899L12.812 8.89199C12.286 8.70299 11.712 8.70299 11.186 8.89199L9 9.67899V12.153C9 14.311 12 15.75 12 15.75Z" stroke="#1757C2" stroke-width="1.5" stroke-linecap="round" stroke-linejoin="round"/>
</svg>
