<svg width="24" height="24" viewBox="0 0 24 24" fill="none" xmlns="http://www.w3.org/2000/svg">
<path d="M20 10.5C20 5.805 16.195 2 11.5 2C6.805 2 3 5.805 3 10.5C3 15.195 6.805 19 11.5 19" stroke="#1757C2" stroke-width="1.5" stroke-linecap="round" stroke-linejoin="round"/>
<path d="M3.887 14.281H3.945C6.778 14.281 8.667 14.119 8.667 11.448C8.667 8.615 11.5 8.615 11.5 6.726C11.5 4.614 7.722 4.837 7.722 2.948V2.88" stroke="#1757C2" stroke-width="1.5" stroke-linecap="round" stroke-linejoin="round"/>
<path d="M20 10.5H16.932C14.827 10.5 13.71 8.01302 15.108 6.43902L17.139 4.15302" stroke="#1757C2" stroke-width="1.5" stroke-linecap="round" stroke-linejoin="round"/>
<path d="M17.478 20.853C17.802 21.049 18.199 21.049 18.523 20.853C19.382 20.332 21 19.143 21 17.567V15.623C21 15.201 20.735 14.825 20.338 14.684L18.812 14.139C18.286 13.951 17.712 13.951 17.186 14.139L15.666 14.683C15.267 14.825 15 15.204 15 15.628V17.567C15 19.143 16.618 20.332 17.478 20.853V20.853Z" stroke="#1757C2" stroke-width="1.5" stroke-linecap="round" stroke-linejoin="round"/>
</svg>
