<svg width="24" height="24" viewBox="0 0 24 24" fill="none" xmlns="http://www.w3.org/2000/svg">
<path d="M15.331 12C15.331 16.73 13.84 20.565 12 20.565C10.586 20.565 9.382 18.297 8.9 15.102M8.669 12C8.669 7.27 10.16 3.435 12 3.435C13.414 3.435 14.618 5.703 15.1 8.898M12 8.669C16.73 8.669 20.565 10.16 20.565 12C20.565 13.414 18.297 14.618 15.102 15.1M12 15.331C7.27 15.331 3.435 13.84 3.435 12C3.435 10.586 5.703 9.382 8.898 8.9M18.364 5.63604C21.8787 9.15076 21.8787 14.8492 18.364 18.3639C14.8493 21.8787 9.1508 21.8787 5.6361 18.3639C2.12138 14.8492 2.12138 9.15074 5.6361 5.63604C9.15082 2.12132 14.8493 2.12132 18.364 5.63604Z" stroke="#1757C2" stroke-width="1.5" stroke-linecap="round" stroke-linejoin="round"/>
</svg>
