<svg width="24" height="24" viewBox="0 0 24 24" fill="none" xmlns="http://www.w3.org/2000/svg">
<path d="M11.9999 2.99994C7.02938 2.99994 2.99994 7.02938 2.99994 11.9999C2.99994 16.9705 7.02938 20.9999 11.9999 20.9999C16.9705 20.9999 20.9999 16.9705 20.9999 11.9999C20.9999 7.02938 16.9705 2.99994 11.9999 2.99994Z" stroke="#1757C2" stroke-width="1.5" stroke-linecap="round" stroke-linejoin="round"/>
<path d="M10.94 9.06001L14.82 11.3601C14.9319 11.4265 15.0247 11.5209 15.0891 11.634C15.1535 11.7471 15.1873 11.8749 15.1873 12.0051C15.1873 12.1352 15.1535 12.2631 15.0891 12.3762C15.0247 12.4893 14.9319 12.5837 14.82 12.6501L10.94 14.9499C10.8258 15.017 10.696 15.0528 10.5635 15.0534C10.4311 15.054 10.3009 15.0196 10.1861 14.9536C10.0713 14.8875 9.97603 14.7922 9.90998 14.6774C9.84393 14.5627 9.80941 14.4324 9.81001 14.3V9.70991C9.80941 9.57748 9.84393 9.44725 9.90998 9.33247C9.97603 9.21768 10.0713 9.12262 10.1861 9.05659C10.3009 8.99056 10.4311 8.95612 10.5635 8.95673C10.696 8.95735 10.8258 8.99291 10.94 9.06001V9.06001Z" stroke="#1757C2" stroke-width="1.5" stroke-linecap="round" stroke-linejoin="round"/>
</svg>
