<svg width="134" height="29" viewBox="0 0 134 29" fill="none" xmlns="http://www.w3.org/2000/svg">
<rect width="133.293" height="29" rx="14.5" fill="#F3F7FC"/>
<path d="M27.8659 13.2536H26.0066C25.9535 12.9486 25.8558 12.6785 25.7132 12.4432C25.5707 12.2045 25.3934 12.0024 25.1813 11.8366C24.9692 11.6709 24.7272 11.5466 24.4554 11.4638C24.187 11.3776 23.897 11.3345 23.5854 11.3345C23.0319 11.3345 22.5414 11.4737 22.1138 11.7521C21.6863 12.0272 21.3515 12.4316 21.1096 12.9652C20.8676 13.4955 20.7466 14.1435 20.7466 14.9091C20.7466 15.688 20.8676 16.3442 21.1096 16.8778C21.3548 17.4081 21.6896 17.8092 22.1138 18.081C22.5414 18.3494 23.0302 18.4837 23.5804 18.4837C23.8854 18.4837 24.1704 18.4439 24.4355 18.3643C24.704 18.2815 24.9443 18.1605 25.1564 18.0014C25.3719 17.8423 25.5525 17.6468 25.6983 17.4148C25.8475 17.1828 25.9502 16.9176 26.0066 16.6193L27.8659 16.6293C27.7963 17.1132 27.6455 17.5672 27.4135 17.9915C27.1848 18.4157 26.8849 18.7902 26.5137 19.1151C26.1425 19.4366 25.7083 19.6884 25.2111 19.8707C24.714 20.0497 24.1621 20.1392 23.5556 20.1392C22.6607 20.1392 21.8619 19.9321 21.1593 19.5178C20.4566 19.1035 19.9031 18.5052 19.4988 17.723C19.0944 16.9408 18.8922 16.0028 18.8922 14.9091C18.8922 13.812 19.0961 12.8741 19.5037 12.0952C19.9114 11.313 20.4666 10.7147 21.1692 10.3004C21.8719 9.88613 22.6673 9.67898 23.5556 9.67898C24.1223 9.67898 24.6493 9.75852 25.1365 9.91761C25.6238 10.0767 26.0579 10.3104 26.4391 10.6186C26.8203 10.9235 27.1335 11.2981 27.3787 11.7422C27.6273 12.183 27.7897 12.6868 27.8659 13.2536ZM30.6625 22.8636C30.4172 22.8636 30.1902 22.8438 29.9814 22.804C29.7759 22.7675 29.6118 22.7244 29.4892 22.6747L29.9068 21.2727C30.1686 21.349 30.4023 21.3854 30.6078 21.3821C30.8133 21.3788 30.9939 21.3142 31.1497 21.1882C31.3088 21.0656 31.443 20.8601 31.5524 20.5717L31.7065 20.1591L28.9373 12.3636H30.8464L32.6064 18.1307H32.6859L34.4508 12.3636H36.3649L33.3074 20.9247C33.1648 21.3291 32.9759 21.6754 32.7406 21.9638C32.5053 22.2554 32.2169 22.4775 31.8755 22.63C31.5375 22.7857 31.1331 22.8636 30.6625 22.8636ZM37.6898 20V9.81818H39.4895V13.6264H39.5641C39.6569 13.4408 39.7878 13.2436 39.9569 13.0348C40.1259 12.8227 40.3546 12.642 40.6429 12.4929C40.9313 12.3404 41.2992 12.2642 41.7466 12.2642C42.3366 12.2642 42.8685 12.415 43.3425 12.7166C43.8198 13.0149 44.1976 13.4574 44.476 14.044C44.7578 14.6274 44.8986 15.3433 44.8986 16.1918C44.8986 17.0303 44.7611 17.7429 44.486 18.3295C44.2109 18.9162 43.8364 19.3636 43.3624 19.6719C42.8884 19.9801 42.3515 20.1342 41.7516 20.1342C41.3141 20.1342 40.9512 20.0613 40.6628 19.9155C40.3745 19.7696 40.1425 19.594 39.9668 19.3885C39.7944 19.1797 39.6602 18.9825 39.5641 18.7969H39.4597V20H37.6898ZM39.4547 16.1818C39.4547 16.6757 39.5243 17.1082 39.6635 17.4794C39.806 17.8506 40.0099 18.1406 40.275 18.3494C40.5435 18.5549 40.8683 18.6577 41.2495 18.6577C41.6472 18.6577 41.9803 18.5516 42.2488 18.3395C42.5172 18.1241 42.7194 17.8307 42.8553 17.4595C42.9945 17.085 43.0641 16.6591 43.0641 16.1818C43.0641 15.7079 42.9962 15.2869 42.8603 14.919C42.7244 14.5511 42.5222 14.2628 42.2537 14.054C41.9853 13.8452 41.6505 13.7408 41.2495 13.7408C40.865 13.7408 40.5385 13.8419 40.2701 14.044C40.0016 14.2462 39.7978 14.5296 39.6586 14.8942C39.5227 15.2588 39.4547 15.688 39.4547 16.1818ZM49.8093 20.1491C49.0437 20.1491 48.3825 19.9901 47.8256 19.6719C47.2721 19.3504 46.8462 18.8963 46.5479 18.3097C46.2496 17.7197 46.1005 17.0253 46.1005 16.2266C46.1005 15.4411 46.2496 14.7517 46.5479 14.1584C46.8496 13.5618 47.2705 13.0978 47.8107 12.7663C48.351 12.4316 48.9857 12.2642 49.7148 12.2642C50.1855 12.2642 50.6296 12.3404 51.0472 12.4929C51.4682 12.642 51.8394 12.8741 52.1609 13.1889C52.4857 13.5038 52.7409 13.9048 52.9265 14.392C53.1121 14.8759 53.2049 15.4527 53.2049 16.1222V16.674H46.9457V15.4609H51.4798C51.4764 15.1162 51.4019 14.8097 51.256 14.5412C51.1102 14.2694 50.9064 14.0556 50.6445 13.8999C50.386 13.7441 50.0844 13.6662 49.7397 13.6662C49.3718 13.6662 49.0487 13.7557 48.7702 13.9347C48.4918 14.1103 48.2747 14.3423 48.119 14.6307C47.9665 14.9157 47.8886 15.2289 47.8853 15.5703V16.6293C47.8853 17.0734 47.9665 17.4545 48.1289 17.7727C48.2913 18.0876 48.5183 18.3295 48.81 18.4986C49.1017 18.6643 49.4431 18.7472 49.8342 18.7472C50.096 18.7472 50.333 18.7107 50.5451 18.6378C50.7572 18.5616 50.9412 18.4505 51.0969 18.3047C51.2527 18.1589 51.3704 17.9782 51.4499 17.7628L53.1303 17.9517C53.0243 18.3958 52.8221 18.7836 52.5238 19.1151C52.2288 19.4432 51.851 19.6984 51.3903 19.8807C50.9296 20.0597 50.4026 20.1491 49.8093 20.1491ZM54.7275 20V12.3636H56.4725V13.6364H56.552C56.6912 13.1955 56.9299 12.8558 57.2679 12.6172C57.6093 12.3752 57.9988 12.2543 58.4363 12.2543C58.5357 12.2543 58.6467 12.2592 58.7694 12.2692C58.8953 12.2758 58.9997 12.2874 59.0826 12.304V13.9595C59.0063 13.933 58.8854 13.9098 58.7196 13.8899C58.5572 13.8667 58.3998 13.8551 58.2473 13.8551C57.9192 13.8551 57.6242 13.9264 57.3624 14.0689C57.1039 14.2081 56.9 14.402 56.7509 14.6506C56.6017 14.8991 56.5272 15.1858 56.5272 15.5107V20H54.7275ZM66.3137 14.3821L64.6731 14.5611C64.6267 14.3954 64.5455 14.2396 64.4295 14.0938C64.3168 13.9479 64.1644 13.8303 63.9721 13.7408C63.7799 13.6513 63.5446 13.6065 63.2662 13.6065C62.8916 13.6065 62.5768 13.6877 62.3216 13.8501C62.0697 14.0125 61.9454 14.223 61.9487 14.4815C61.9454 14.7036 62.0266 14.8842 62.1923 15.0234C62.3613 15.1626 62.6397 15.277 63.0275 15.3665L64.3301 15.6449C65.0526 15.8007 65.5895 16.0476 65.9409 16.3857C66.2955 16.7237 66.4745 17.1662 66.4778 17.7131C66.4745 18.1937 66.3336 18.6179 66.0552 18.9858C65.7801 19.3504 65.3973 19.6354 64.9068 19.8409C64.4163 20.0464 63.8528 20.1491 63.2164 20.1491C62.2818 20.1491 61.5294 19.9536 60.9593 19.5625C60.3893 19.1681 60.0495 18.6196 59.9402 17.9169L61.6951 17.7479C61.7747 18.0926 61.9437 18.3527 62.2022 18.5284C62.4608 18.7041 62.7972 18.7919 63.2115 18.7919C63.639 18.7919 63.9821 18.7041 64.2406 18.5284C64.5024 18.3527 64.6333 18.1357 64.6333 17.8771C64.6333 17.6584 64.5488 17.4777 64.3798 17.3352C64.2141 17.1927 63.9556 17.0833 63.6042 17.0071L62.3017 16.7337C61.5692 16.5812 61.0273 16.3243 60.676 15.9631C60.3246 15.5985 60.1506 15.1378 60.1539 14.581C60.1506 14.1103 60.2782 13.7027 60.5368 13.358C60.7986 13.0099 61.1615 12.7415 61.6255 12.5526C62.0929 12.3603 62.6315 12.2642 63.2413 12.2642C64.1362 12.2642 64.8405 12.4548 65.3542 12.8359C65.8713 13.2171 66.1911 13.7325 66.3137 14.3821ZM71.3425 20.1491C70.5769 20.1491 69.9157 19.9901 69.3588 19.6719C68.8053 19.3504 68.3794 18.8963 68.0811 18.3097C67.7828 17.7197 67.6337 17.0253 67.6337 16.2266C67.6337 15.4411 67.7828 14.7517 68.0811 14.1584C68.3828 13.5618 68.8037 13.0978 69.3439 12.7663C69.8842 12.4316 70.5189 12.2642 71.248 12.2642C71.7187 12.2642 72.1628 12.3404 72.5804 12.4929C73.0014 12.642 73.3726 12.8741 73.6941 13.1889C74.0189 13.5038 74.2741 13.9048 74.4597 14.392C74.6453 14.8759 74.7381 15.4527 74.7381 16.1222V16.674H68.4789V15.4609H73.013C73.0096 15.1162 72.9351 14.8097 72.7892 14.5412C72.6434 14.2694 72.4396 14.0556 72.1777 13.8999C71.9192 13.7441 71.6176 13.6662 71.2729 13.6662C70.905 13.6662 70.5819 13.7557 70.3034 13.9347C70.025 14.1103 69.8079 14.3423 69.6522 14.6307C69.4997 14.9157 69.4218 15.2289 69.4185 15.5703V16.6293C69.4185 17.0734 69.4997 17.4545 69.6621 17.7727C69.8245 18.0876 70.0516 18.3295 70.3432 18.4986C70.6349 18.6643 70.9763 18.7472 71.3674 18.7472C71.6292 18.7472 71.8662 18.7107 72.0783 18.6378C72.2904 18.5616 72.4744 18.4505 72.6301 18.3047C72.7859 18.1589 72.9036 17.9782 72.9831 17.7628L74.6635 17.9517C74.5575 18.3958 74.3553 18.7836 74.057 19.1151C73.762 19.4432 73.3842 19.6984 72.9235 19.8807C72.4628 20.0597 71.9358 20.1491 71.3425 20.1491ZM79.5916 20.1491C78.8293 20.1491 78.1747 19.9818 77.6278 19.647C77.0843 19.3123 76.665 18.8499 76.37 18.2599C76.0784 17.6667 75.9325 16.9839 75.9325 16.2116C75.9325 15.4361 76.0817 14.7517 76.38 14.1584C76.6783 13.5618 77.0992 13.0978 77.6428 12.7663C78.1896 12.4316 78.8359 12.2642 79.5817 12.2642C80.2015 12.2642 80.75 12.3786 81.2273 12.6072C81.7079 12.8326 82.0907 13.1525 82.3757 13.5668C82.6607 13.9777 82.8232 14.4583 82.8629 15.0085H81.1428C81.0732 14.6406 80.9074 14.334 80.6456 14.0888C80.3871 13.8402 80.0407 13.7159 79.6065 13.7159C79.2386 13.7159 78.9155 13.8153 78.6371 14.0142C78.3587 14.2098 78.1416 14.4915 77.9858 14.8594C77.8333 15.2273 77.7571 15.6681 77.7571 16.1818C77.7571 16.7022 77.8333 17.1496 77.9858 17.5241C78.1383 17.8954 78.352 18.1821 78.6271 18.3842C78.9055 18.5831 79.232 18.6825 79.6065 18.6825C79.8717 18.6825 80.1087 18.6328 80.3175 18.5334C80.5296 18.4306 80.7069 18.2831 80.8494 18.0909C80.992 17.8987 81.0897 17.665 81.1428 17.3899H82.8629C82.8198 17.9302 82.6607 18.4091 82.3857 18.8267C82.1106 19.241 81.736 19.5658 81.2621 19.8011C80.7881 20.0331 80.2313 20.1491 79.5916 20.1491ZM89.2079 16.7884V12.3636H91.0076V20H89.2626V18.6428H89.1831C89.0107 19.0703 88.7273 19.42 88.3329 19.6918C87.9418 19.9635 87.4596 20.0994 86.8862 20.0994C86.3857 20.0994 85.9432 19.9884 85.5588 19.7663C85.1776 19.541 84.8793 19.2145 84.6639 18.7869C84.4484 18.3561 84.3407 17.8357 84.3407 17.2259V12.3636H86.1404V16.9474C86.1404 17.4313 86.273 17.8158 86.5382 18.1009C86.8033 18.3859 87.1513 18.5284 87.5822 18.5284C87.8474 18.5284 88.1042 18.4638 88.3528 18.3345C88.6014 18.2053 88.8052 18.013 88.9643 17.7578C89.1267 17.4993 89.2079 17.1761 89.2079 16.7884ZM92.8583 20V12.3636H94.6033V13.6364H94.6829C94.8221 13.1955 95.0607 12.8558 95.3988 12.6172C95.7402 12.3752 96.1296 12.2543 96.5671 12.2543C96.6665 12.2543 96.7776 12.2592 96.9002 12.2692C97.0262 12.2758 97.1306 12.2874 97.2134 12.304V13.9595C97.1372 13.933 97.0162 13.9098 96.8505 13.8899C96.6881 13.8667 96.5307 13.8551 96.3782 13.8551C96.0501 13.8551 95.7551 13.9264 95.4933 14.0689C95.2347 14.2081 95.0309 14.402 94.8817 14.6506C94.7326 14.8991 94.658 15.1858 94.658 15.5107V20H92.8583ZM98.4091 20V12.3636H100.209V20H98.4091ZM99.3139 11.2798C99.0289 11.2798 98.7836 11.1854 98.5781 10.9964C98.3726 10.8042 98.2699 10.5739 98.2699 10.3054C98.2699 10.0336 98.3726 9.80327 98.5781 9.61435C98.7836 9.42211 99.0289 9.32599 99.3139 9.32599C99.6023 9.32599 99.8475 9.42211 100.05 9.61435C100.255 9.80327 100.358 10.0336 100.358 10.3054C100.358 10.5739 100.255 10.8042 100.05 10.9964C99.8475 11.1854 99.6023 11.2798 99.3139 11.2798ZM105.873 12.3636V13.7557H101.483V12.3636H105.873ZM102.567 10.5341H104.366V17.7031C104.366 17.9451 104.403 18.1307 104.476 18.2599C104.552 18.3859 104.651 18.4721 104.774 18.5185C104.897 18.5649 105.032 18.5881 105.182 18.5881C105.294 18.5881 105.397 18.5798 105.49 18.5632C105.586 18.5466 105.659 18.5317 105.709 18.5185L106.012 19.9254C105.916 19.9586 105.778 19.995 105.599 20.0348C105.424 20.0746 105.208 20.0978 104.953 20.1044C104.502 20.1177 104.096 20.0497 103.735 19.9006C103.374 19.7481 103.087 19.5128 102.875 19.1946C102.666 18.8764 102.563 18.4787 102.567 18.0014V10.5341ZM108.496 22.8636C108.251 22.8636 108.024 22.8438 107.815 22.804C107.61 22.7675 107.446 22.7244 107.323 22.6747L107.741 21.2727C108.003 21.349 108.236 21.3854 108.442 21.3821C108.647 21.3788 108.828 21.3142 108.984 21.1882C109.143 21.0656 109.277 20.8601 109.386 20.5717L109.54 20.1591L106.771 12.3636H108.68L110.44 18.1307H110.52L112.285 12.3636H114.199L111.141 20.9247C110.999 21.3291 110.81 21.6754 110.575 21.9638C110.339 22.2554 110.051 22.4775 109.71 22.63C109.371 22.7857 108.967 22.8636 108.496 22.8636Z" fill="#1757C2"/>
</svg>
