<svg width="231" height="29" viewBox="0 0 231 29" fill="none" xmlns="http://www.w3.org/2000/svg">
<rect width="230.293" height="29" rx="14.5" fill="#E5E4ED"/>
<path d="M20.4583 20H18.4895L22.074 9.81818H24.351L27.9405 20H25.9718L23.2523 11.9062H23.1728L20.4583 20ZM20.5229 16.0078H25.8922V17.4893H20.5229V16.0078ZM32.5368 12.3636V13.7557H28.1468V12.3636H32.5368ZM29.2306 10.5341H31.0304V17.7031C31.0304 17.9451 31.0668 18.1307 31.1397 18.2599C31.216 18.3859 31.3154 18.4721 31.438 18.5185C31.5607 18.5649 31.6966 18.5881 31.8457 18.5881C31.9584 18.5881 32.0611 18.5798 32.1539 18.5632C32.2501 18.5466 32.323 18.5317 32.3727 18.5185L32.676 19.9254C32.5798 19.9586 32.4423 19.995 32.2633 20.0348C32.0877 20.0746 31.8722 20.0978 31.617 20.1044C31.1663 20.1177 30.7602 20.0497 30.399 19.9006C30.0377 19.7481 29.751 19.5128 29.5389 19.1946C29.3301 18.8764 29.2273 18.4787 29.2306 18.0014V10.5341ZM37.8551 12.3636V13.7557L33.4652 13.7557V12.3636L37.8551 12.3636ZM34.549 10.5341H36.3487V17.7031C36.3487 17.9451 36.3852 18.1307 36.4581 18.2599C36.5343 18.3859 36.6338 18.4721 36.7564 18.5185C36.879 18.5649 37.0149 18.5881 37.1641 18.5881C37.2768 18.5881 37.3795 18.5798 37.4723 18.5632C37.5684 18.5466 37.6413 18.5317 37.6911 18.5185L37.9943 19.9254C37.8982 19.9586 37.7607 19.995 37.5817 20.0348C37.406 20.0746 37.1906 20.0978 36.9354 20.1044C36.4846 20.1177 36.0786 20.0497 35.7173 19.9006C35.3561 19.7481 35.0694 19.5128 34.8572 19.1946C34.6484 18.8764 34.5457 18.4787 34.549 18.0014V10.5341ZM41.5577 20.1541C41.0738 20.1541 40.638 20.0679 40.2502 19.8956C39.8657 19.7199 39.5608 19.4614 39.3354 19.12C39.1133 18.7786 39.0023 18.3577 39.0023 17.8572C39.0023 17.4264 39.0819 17.0701 39.2409 16.7884C39.4 16.5066 39.6171 16.2812 39.8922 16.1122C40.1673 15.9432 40.4772 15.8156 40.8219 15.7294C41.1699 15.6399 41.5295 15.5753 41.9007 15.5355C42.3482 15.4891 42.7111 15.4477 42.9895 15.4112C43.2679 15.3714 43.4701 15.3118 43.5961 15.2322C43.7253 15.1494 43.79 15.0218 43.79 14.8494V14.8196C43.79 14.4451 43.6789 14.1551 43.4569 13.9496C43.2348 13.7441 42.915 13.6413 42.4973 13.6413C42.0565 13.6413 41.7069 13.7375 41.4483 13.9297C41.1931 14.1219 41.0208 14.349 40.9313 14.6108L39.2509 14.3722C39.3835 13.9081 39.6022 13.5204 39.9071 13.2088C40.2121 12.8939 40.5849 12.6586 41.0257 12.5028C41.4666 12.3438 41.9538 12.2642 42.4874 12.2642C42.8553 12.2642 43.2215 12.3073 43.5861 12.3935C43.9507 12.4796 44.2838 12.6222 44.5854 12.821C44.887 13.0166 45.129 13.2834 45.3113 13.6214C45.4969 13.9595 45.5897 14.3821 45.5897 14.8892V20H43.8596V18.951H43.7999C43.6905 19.1631 43.5364 19.362 43.3375 19.5476C43.142 19.7299 42.8951 19.8774 42.5968 19.9901C42.3018 20.0994 41.9554 20.1541 41.5577 20.1541ZM42.025 18.8317C42.3863 18.8317 42.6995 18.7604 42.9647 18.6179C43.2298 18.4721 43.4337 18.2798 43.5762 18.0412C43.722 17.8026 43.7949 17.5424 43.7949 17.2607V16.3608C43.7386 16.4072 43.6425 16.4503 43.5066 16.4901C43.374 16.5298 43.2248 16.5646 43.0591 16.5945C42.8934 16.6243 42.7293 16.6508 42.5669 16.674C42.4045 16.6972 42.2637 16.7171 42.1444 16.7337C41.8759 16.7701 41.6356 16.8298 41.4235 16.9126C41.2114 16.9955 41.044 17.1115 40.9213 17.2607C40.7987 17.4065 40.7374 17.5954 40.7374 17.8274C40.7374 18.1589 40.8584 18.4091 41.1003 18.5781C41.3423 18.7472 41.6505 18.8317 42.025 18.8317ZM50.7303 20.1491C49.968 20.1491 49.3134 19.9818 48.7665 19.647C48.223 19.3123 47.8037 18.8499 47.5087 18.2599C47.217 17.6667 47.0712 16.9839 47.0712 16.2116C47.0712 15.4361 47.2203 14.7517 47.5186 14.1584C47.8169 13.5618 48.2379 13.0978 48.7814 12.7663C49.3283 12.4316 49.9746 12.2642 50.7203 12.2642C51.3401 12.2642 51.8887 12.3786 52.3659 12.6072C52.8465 12.8326 53.2293 13.1525 53.5144 13.5668C53.7994 13.9777 53.9618 14.4583 54.0016 15.0085H52.2814C52.2118 14.6406 52.0461 14.334 51.7843 14.0888C51.5257 13.8402 51.1794 13.7159 50.7452 13.7159C50.3773 13.7159 50.0542 13.8153 49.7757 14.0142C49.4973 14.2098 49.2802 14.4915 49.1245 14.8594C48.972 15.2273 48.8958 15.6681 48.8958 16.1818C48.8958 16.7022 48.972 17.1496 49.1245 17.5241C49.2769 17.8954 49.4907 18.1821 49.7658 18.3842C50.0442 18.5831 50.3707 18.6825 50.7452 18.6825C51.0104 18.6825 51.2473 18.6328 51.4561 18.5334C51.6683 18.4306 51.8456 18.2831 51.9881 18.0909C52.1306 17.8987 52.2284 17.665 52.2814 17.3899H54.0016C53.9585 17.9302 53.7994 18.4091 53.5243 18.8267C53.2492 19.241 52.8747 19.5658 52.4007 19.8011C51.9268 20.0331 51.37 20.1491 50.7303 20.1491ZM57.12 17.6037L57.1151 15.4311H57.4034L60.1477 12.3636H62.2507L58.875 16.1222H58.5021L57.12 17.6037ZM55.4794 20V9.81818H57.2791V20H55.4794ZM60.272 20L57.7862 16.5249L58.9993 15.2571L62.4247 20H60.272ZM72.5357 12.6172C72.4893 12.183 72.2937 11.8449 71.949 11.603C71.6077 11.361 71.1635 11.2401 70.6167 11.2401C70.2322 11.2401 69.9024 11.2981 69.6273 11.4141C69.3522 11.5301 69.1417 11.6875 68.9959 11.8864C68.8501 12.0852 68.7755 12.3123 68.7722 12.5675C68.7722 12.7796 68.8203 12.9635 68.9164 13.1193C69.0158 13.2751 69.15 13.4077 69.3191 13.517C69.4881 13.6231 69.6754 13.7126 69.8809 13.7855C70.0864 13.8584 70.2935 13.9197 70.5023 13.9695L71.4569 14.2081C71.8413 14.2976 72.2109 14.4186 72.5655 14.571C72.9235 14.7235 73.2433 14.9157 73.525 15.1477C73.8101 15.3797 74.0355 15.6598 74.2012 15.9879C74.3669 16.3161 74.4498 16.7005 74.4498 17.1413C74.4498 17.7379 74.2973 18.2633 73.9924 18.7173C73.6874 19.1681 73.2466 19.5211 72.6699 19.7763C72.0965 20.0282 71.4022 20.1541 70.5868 20.1541C69.7947 20.1541 69.1069 20.0315 68.5236 19.7862C67.9436 19.541 67.4895 19.183 67.1614 18.7124C66.8366 18.2417 66.6609 17.6683 66.6344 16.9922H68.449C68.4756 17.3468 68.5849 17.6418 68.7772 17.8771C68.9694 18.1125 69.2196 18.2881 69.5279 18.4041C69.8394 18.5201 70.1874 18.5781 70.5719 18.5781C70.973 18.5781 71.3243 18.5185 71.6259 18.3991C71.9308 18.2765 72.1694 18.1075 72.3418 17.892C72.5141 17.6733 72.602 17.4181 72.6053 17.1264C72.602 16.8613 72.5241 16.6425 72.3716 16.4702C72.2192 16.2945 72.0054 16.1487 71.7303 16.0327C71.4585 15.9134 71.1403 15.8073 70.7757 15.7145L69.6174 15.4162C68.7788 15.2008 68.1159 14.8743 67.6287 14.4368C67.1448 13.996 66.9029 13.411 66.9029 12.6818C66.9029 12.0819 67.0653 11.5566 67.3901 11.1058C67.7182 10.6551 68.164 10.3054 68.7275 10.0568C69.2909 9.80492 69.9289 9.67898 70.6415 9.67898C71.3641 9.67898 71.9971 9.80492 72.5407 10.0568C73.0875 10.3054 73.5167 10.6518 73.8283 11.0959C74.1399 11.5367 74.3006 12.0438 74.3105 12.6172H72.5357ZM80.8817 16.7884V12.3636H82.6815V20H80.9364V18.6428H80.8569C80.6845 19.0703 80.4012 19.42 80.0067 19.6918C79.6156 19.9635 79.1334 20.0994 78.56 20.0994C78.0595 20.0994 77.6171 19.9884 77.2326 19.7663C76.8514 19.541 76.5531 19.2145 76.3377 18.7869C76.1223 18.3561 76.0146 17.8357 76.0146 17.2259V12.3636H77.8143V16.9474C77.8143 17.4313 77.9469 17.8158 78.212 18.1009C78.4772 18.3859 78.8252 18.5284 79.256 18.5284C79.5212 18.5284 79.7781 18.4638 80.0266 18.3345C80.2752 18.2053 80.479 18.013 80.6381 17.7578C80.8005 17.4993 80.8817 17.1761 80.8817 16.7884ZM84.5321 20V12.3636H86.2772V13.6364H86.3567C86.4959 13.1955 86.7346 12.8558 87.0726 12.6172C87.414 12.3752 87.8034 12.2543 88.2409 12.2543C88.3404 12.2543 88.4514 12.2592 88.574 12.2692C88.7 12.2758 88.8044 12.2874 88.8873 12.304V13.9595C88.811 13.933 88.69 13.9098 88.5243 13.8899C88.3619 13.8667 88.2045 13.8551 88.052 13.8551C87.7239 13.8551 87.4289 13.9264 87.1671 14.0689C86.9086 14.2081 86.7047 14.402 86.5556 14.6506C86.4064 14.8991 86.3319 15.1858 86.3319 15.5107V20H84.5321ZM94.361 12.3636V13.7557H89.8468V12.3636H94.361ZM90.9753 20V11.6428C90.9753 11.129 91.0814 10.7015 91.2935 10.3601C91.5089 10.0187 91.7973 9.76349 92.1586 9.59446C92.5198 9.42543 92.9209 9.34091 93.3617 9.34091C93.6732 9.34091 93.95 9.36577 94.1919 9.41548C94.4339 9.4652 94.6129 9.50994 94.7289 9.54972L94.3709 10.9418C94.2947 10.9186 94.1986 10.8954 94.0826 10.8722C93.9666 10.8456 93.8373 10.8324 93.6948 10.8324C93.36 10.8324 93.123 10.9136 92.9838 11.076C92.848 11.2351 92.78 11.4638 92.78 11.7621V20H90.9753ZM97.7081 20.1541C97.2242 20.1541 96.7884 20.0679 96.4006 19.8956C96.0161 19.7199 95.7112 19.4614 95.4858 19.12C95.2637 18.7786 95.1527 18.3577 95.1527 17.8572C95.1527 17.4264 95.2322 17.0701 95.3913 16.7884C95.5504 16.5066 95.7675 16.2813 96.0426 16.1122C96.3177 15.9432 96.6276 15.8156 96.9723 15.7294C97.3203 15.6399 97.6799 15.5753 98.0511 15.5355C98.4986 15.4891 98.8615 15.4477 99.1399 15.4112C99.4183 15.3714 99.6205 15.3118 99.7464 15.2322C99.8757 15.1494 99.9403 15.0218 99.9403 14.8494V14.8196C99.9403 14.4451 99.8293 14.1551 99.6072 13.9496C99.3852 13.7441 99.0653 13.6413 98.6477 13.6413C98.2069 13.6413 97.8572 13.7375 97.5987 13.9297C97.3435 14.1219 97.1712 14.349 97.0817 14.6108L95.4013 14.3722C95.5339 13.9081 95.7526 13.5204 96.0575 13.2088C96.3625 12.8939 96.7353 12.6586 97.1761 12.5028C97.617 12.3438 98.1042 12.2642 98.6378 12.2642C99.0057 12.2642 99.3719 12.3073 99.7365 12.3935C100.101 12.4796 100.434 12.6222 100.736 12.821C101.037 13.0166 101.279 13.2834 101.462 13.6214C101.647 13.9595 101.74 14.3821 101.74 14.8892V20H100.01V18.951H99.9503C99.8409 19.1631 99.6868 19.362 99.4879 19.5476C99.2924 19.7299 99.0455 19.8774 98.7472 19.9901C98.4522 20.0994 98.1058 20.1541 97.7081 20.1541ZM98.1754 18.8317C98.5367 18.8317 98.8499 18.7604 99.1151 18.6179C99.3802 18.4721 99.584 18.2798 99.7266 18.0412C99.8724 17.8026 99.9453 17.5424 99.9453 17.2607V16.3608C99.889 16.4072 99.7929 16.4503 99.657 16.4901C99.5244 16.5298 99.3752 16.5646 99.2095 16.5945C99.0438 16.6243 98.8797 16.6508 98.7173 16.674C98.5549 16.6972 98.4141 16.7171 98.2947 16.7337C98.0263 16.7701 97.786 16.8298 97.5739 16.9126C97.3617 16.9955 97.1944 17.1115 97.0717 17.2607C96.9491 17.4065 96.8878 17.5954 96.8878 17.8274C96.8878 18.1589 97.0088 18.4091 97.2507 18.5781C97.4927 18.7472 97.8009 18.8317 98.1754 18.8317ZM106.881 20.1491C106.118 20.1491 105.464 19.9818 104.917 19.647C104.373 19.3123 103.954 18.8499 103.659 18.2599C103.367 17.6667 103.222 16.9839 103.222 16.2116C103.222 15.4361 103.371 14.7517 103.669 14.1584C103.967 13.5618 104.388 13.0978 104.932 12.7663C105.479 12.4316 106.125 12.2642 106.871 12.2642C107.491 12.2642 108.039 12.3786 108.516 12.6072C108.997 12.8326 109.38 13.1525 109.665 13.5668C109.95 13.9777 110.112 14.4583 110.152 15.0085H108.432C108.362 14.6406 108.196 14.334 107.935 14.0888C107.676 13.8402 107.33 13.7159 106.896 13.7159C106.528 13.7159 106.205 13.8153 105.926 14.0142C105.648 14.2098 105.431 14.4915 105.275 14.8594C105.122 15.2273 105.046 15.6681 105.046 16.1818C105.046 16.7022 105.122 17.1496 105.275 17.5241C105.427 17.8954 105.641 18.1821 105.916 18.3842C106.195 18.5831 106.521 18.6825 106.896 18.6825C107.161 18.6825 107.398 18.6328 107.607 18.5334C107.819 18.4306 107.996 18.2831 108.138 18.0909C108.281 17.8987 108.379 17.665 108.432 17.3899H110.152C110.109 17.9302 109.95 18.4091 109.675 18.8267C109.4 19.241 109.025 19.5658 108.551 19.8011C108.077 20.0331 107.52 20.1491 106.881 20.1491ZM115.01 20.1491C114.245 20.1491 113.584 19.9901 113.027 19.6719C112.473 19.3504 112.047 18.8963 111.749 18.3097C111.451 17.7197 111.302 17.0253 111.302 16.2266C111.302 15.4411 111.451 14.7517 111.749 14.1584C112.051 13.5618 112.472 13.0978 113.012 12.7663C113.552 12.4316 114.187 12.2642 114.916 12.2642C115.387 12.2642 115.831 12.3404 116.248 12.4929C116.669 12.642 117.041 12.8741 117.362 13.1889C117.687 13.5038 117.942 13.9048 118.128 14.392C118.313 14.8759 118.406 15.4527 118.406 16.1222V16.674H112.147V15.4609H116.681C116.678 15.1162 116.603 14.8097 116.457 14.5412C116.311 14.2694 116.108 14.0556 115.846 13.8999C115.587 13.7441 115.286 13.6662 114.941 13.6662C114.573 13.6662 114.25 13.7557 113.971 13.9347C113.693 14.1103 113.476 14.3423 113.32 14.6307C113.168 14.9157 113.09 15.2289 113.086 15.5703V16.6293C113.086 17.0734 113.168 17.4545 113.33 17.7727C113.492 18.0876 113.72 18.3295 114.011 18.4986C114.303 18.6643 114.644 18.7472 115.035 18.7472C115.297 18.7472 115.534 18.7107 115.746 18.6378C115.958 18.5616 116.142 18.4505 116.298 18.3047C116.454 18.1589 116.572 17.9782 116.651 17.7628L118.331 17.9517C118.225 18.3958 118.023 18.7836 117.725 19.1151C117.43 19.4432 117.052 19.6984 116.591 19.8807C116.131 20.0597 115.604 20.1491 115.01 20.1491ZM123.481 9.81818H125.738L128.761 17.196H128.88L131.903 9.81818H134.16V20H132.39V13.005H132.295L129.482 19.9702H128.159L125.345 12.9901H125.251V20H123.481V9.81818ZM138.286 20.1541C137.802 20.1541 137.366 20.0679 136.979 19.8956C136.594 19.7199 136.289 19.4614 136.064 19.12C135.842 18.7786 135.731 18.3577 135.731 17.8572C135.731 17.4264 135.81 17.0701 135.969 16.7884C136.129 16.5066 136.346 16.2813 136.621 16.1122C136.896 15.9432 137.206 15.8156 137.55 15.7294C137.898 15.6399 138.258 15.5753 138.629 15.5355C139.077 15.4891 139.44 15.4477 139.718 15.4112C139.996 15.3714 140.199 15.3118 140.325 15.2322C140.454 15.1494 140.518 15.0218 140.518 14.8494V14.8196C140.518 14.4451 140.407 14.1551 140.185 13.9496C139.963 13.7441 139.643 13.6413 139.226 13.6413C138.785 13.6413 138.435 13.7375 138.177 13.9297C137.922 14.1219 137.749 14.349 137.66 14.6108L135.979 14.3722C136.112 13.9081 136.331 13.5204 136.636 13.2088C136.941 12.8939 137.313 12.6586 137.754 12.5028C138.195 12.3438 138.682 12.2642 139.216 12.2642C139.584 12.2642 139.95 12.3073 140.315 12.3935C140.679 12.4796 141.012 12.6222 141.314 12.821C141.616 13.0166 141.857 13.2834 142.04 13.6214C142.225 13.9595 142.318 14.3821 142.318 14.8892V20H140.588V18.951H140.528C140.419 19.1631 140.265 19.362 140.066 19.5476C139.871 19.7299 139.624 19.8774 139.325 19.9901C139.03 20.0994 138.684 20.1541 138.286 20.1541ZM138.754 18.8317C139.115 18.8317 139.428 18.7604 139.693 18.6179C139.958 18.4721 140.162 18.2798 140.305 18.0412C140.451 17.8026 140.523 17.5424 140.523 17.2607V16.3608C140.467 16.4072 140.371 16.4503 140.235 16.4901C140.103 16.5298 139.953 16.5646 139.788 16.5945C139.622 16.6243 139.458 16.6508 139.295 16.674C139.133 16.6972 138.992 16.7171 138.873 16.7337C138.604 16.7701 138.364 16.8298 138.152 16.9126C137.94 16.9955 137.772 17.1115 137.65 17.2607C137.527 17.4065 137.466 17.5954 137.466 17.8274C137.466 18.1589 137.587 18.4091 137.829 18.5781C138.071 18.7472 138.379 18.8317 138.754 18.8317ZM145.928 15.5256V20H144.128V12.3636H145.848V13.6612H145.938C146.113 13.2337 146.393 12.8939 146.778 12.642C147.165 12.3902 147.644 12.2642 148.214 12.2642C148.741 12.2642 149.201 12.3769 149.592 12.6023C149.986 12.8277 150.291 13.1541 150.506 13.5817C150.725 14.0092 150.833 14.5279 150.83 15.1378V20H149.03V15.4162C149.03 14.9058 148.897 14.5064 148.632 14.218C148.37 13.9297 148.007 13.7855 147.543 13.7855C147.228 13.7855 146.948 13.8551 146.703 13.9943C146.461 14.1302 146.271 14.3274 146.131 14.5859C145.996 14.8445 145.928 15.1577 145.928 15.5256ZM154.857 20.1541C154.373 20.1541 153.937 20.0679 153.549 19.8956C153.165 19.7199 152.86 19.4614 152.634 19.12C152.412 18.7786 152.301 18.3577 152.301 17.8572C152.301 17.4264 152.381 17.0701 152.54 16.7884C152.699 16.5066 152.916 16.2813 153.191 16.1122C153.466 15.9432 153.776 15.8156 154.121 15.7294C154.469 15.6399 154.828 15.5753 155.2 15.5355C155.647 15.4891 156.01 15.4477 156.288 15.4112C156.567 15.3714 156.769 15.3118 156.895 15.2322C157.024 15.1494 157.089 15.0218 157.089 14.8494V14.8196C157.089 14.4451 156.978 14.1551 156.756 13.9496C156.534 13.7441 156.214 13.6413 155.796 13.6413C155.355 13.6413 155.006 13.7375 154.747 13.9297C154.492 14.1219 154.32 14.349 154.23 14.6108L152.55 14.3722C152.682 13.9081 152.901 13.5204 153.206 13.2088C153.511 12.8939 153.884 12.6586 154.325 12.5028C154.765 12.3438 155.253 12.2642 155.786 12.2642C156.154 12.2642 156.52 12.3073 156.885 12.3935C157.25 12.4796 157.583 12.6222 157.884 12.821C158.186 13.0166 158.428 13.2834 158.61 13.6214C158.796 13.9595 158.888 14.3821 158.888 14.8892V20H157.158V18.951H157.099C156.989 19.1631 156.835 19.362 156.636 19.5476C156.441 19.7299 156.194 19.8774 155.896 19.9901C155.601 20.0994 155.254 20.1541 154.857 20.1541ZM155.324 18.8317C155.685 18.8317 155.998 18.7604 156.263 18.6179C156.529 18.4721 156.732 18.2798 156.875 18.0412C157.021 17.8026 157.094 17.5424 157.094 17.2607V16.3608C157.037 16.4072 156.941 16.4503 156.805 16.4901C156.673 16.5298 156.524 16.5646 156.358 16.5945C156.192 16.6243 156.028 16.6508 155.866 16.674C155.703 16.6972 155.563 16.7171 155.443 16.7337C155.175 16.7701 154.934 16.8298 154.722 16.9126C154.51 16.9955 154.343 17.1115 154.22 17.2607C154.098 17.4065 154.036 17.5954 154.036 17.8274C154.036 18.1589 154.157 18.4091 154.399 18.5781C154.641 18.7472 154.949 18.8317 155.324 18.8317ZM164.019 23.0227C163.373 23.0227 162.818 22.9349 162.354 22.7592C161.89 22.5869 161.517 22.3549 161.235 22.0632C160.953 21.7715 160.758 21.4484 160.648 21.0938L162.269 20.701C162.342 20.8501 162.448 20.9976 162.587 21.1435C162.727 21.2926 162.914 21.4152 163.149 21.5114C163.388 21.6108 163.688 21.6605 164.049 21.6605C164.559 21.6605 164.982 21.5362 165.317 21.2876C165.652 21.0424 165.819 20.638 165.819 20.0746V18.6278H165.729C165.637 18.8134 165.501 19.004 165.322 19.1996C165.146 19.3951 164.912 19.5592 164.621 19.6918C164.332 19.8243 163.969 19.8906 163.532 19.8906C162.945 19.8906 162.413 19.7531 161.936 19.478C161.462 19.1996 161.084 18.7853 160.803 18.2351C160.524 17.6816 160.385 16.9889 160.385 16.157C160.385 15.3184 160.524 14.6108 160.803 14.0341C161.084 13.4541 161.464 13.0149 161.941 12.7166C162.418 12.415 162.95 12.2642 163.537 12.2642C163.984 12.2642 164.352 12.3404 164.641 12.4929C164.932 12.642 165.164 12.8227 165.337 13.0348C165.509 13.2436 165.64 13.4408 165.729 13.6264H165.829V12.3636H167.604V20.1243C167.604 20.7772 167.448 21.3175 167.136 21.745C166.825 22.1726 166.399 22.4924 165.859 22.7045C165.318 22.9167 164.705 23.0227 164.019 23.0227ZM164.034 18.4787C164.415 18.4787 164.74 18.3859 165.009 18.2003C165.277 18.0147 165.481 17.7479 165.62 17.3999C165.759 17.0518 165.829 16.6342 165.829 16.147C165.829 15.6664 165.759 15.2455 165.62 14.8842C165.484 14.523 165.282 14.2429 165.013 14.044C164.748 13.8419 164.422 13.7408 164.034 13.7408C163.633 13.7408 163.298 13.8452 163.03 14.054C162.761 14.2628 162.559 14.5495 162.423 14.9141C162.287 15.2753 162.219 15.6863 162.219 16.147C162.219 16.6143 162.287 17.0237 162.423 17.375C162.563 17.723 162.766 17.9948 163.035 18.1903C163.307 18.3826 163.64 18.4787 164.034 18.4787ZM172.829 20.1491C172.063 20.1491 171.402 19.9901 170.845 19.6719C170.292 19.3504 169.866 18.8963 169.567 18.3097C169.269 17.7197 169.12 17.0253 169.12 16.2266C169.12 15.4411 169.269 14.7517 169.567 14.1584C169.869 13.5618 170.29 13.0978 170.83 12.7663C171.371 12.4316 172.005 12.2642 172.734 12.2642C173.205 12.2642 173.649 12.3404 174.067 12.4929C174.488 12.642 174.859 12.8741 175.18 13.1889C175.505 13.5038 175.76 13.9048 175.946 14.392C176.132 14.8759 176.224 15.4527 176.224 16.1222V16.674H169.965V15.4609H174.499C174.496 15.1162 174.421 14.8097 174.276 14.5412C174.13 14.2694 173.926 14.0556 173.664 13.8999C173.406 13.7441 173.104 13.6662 172.759 13.6662C172.391 13.6662 172.068 13.7557 171.79 13.9347C171.511 14.1103 171.294 14.3423 171.138 14.6307C170.986 14.9157 170.908 15.2289 170.905 15.5703V16.6293C170.905 17.0734 170.986 17.4545 171.148 17.7727C171.311 18.0876 171.538 18.3295 171.83 18.4986C172.121 18.6643 172.463 18.7472 172.854 18.7472C173.116 18.7472 173.353 18.7107 173.565 18.6378C173.777 18.5616 173.961 18.4505 174.116 18.3047C174.272 18.1589 174.39 17.9782 174.469 17.7628L176.15 17.9517C176.044 18.3958 175.842 18.7836 175.543 19.1151C175.248 19.4432 174.871 19.6984 174.41 19.8807C173.949 20.0597 173.422 20.1491 172.829 20.1491ZM177.747 20V12.3636H179.467V13.6612H179.557C179.716 13.2237 179.979 12.8823 180.347 12.6371C180.715 12.3885 181.154 12.2642 181.665 12.2642C182.182 12.2642 182.617 12.3902 182.972 12.642C183.33 12.8906 183.582 13.2304 183.728 13.6612H183.807C183.976 13.237 184.261 12.8989 184.662 12.647C185.067 12.3918 185.546 12.2642 186.099 12.2642C186.802 12.2642 187.375 12.4863 187.819 12.9304C188.264 13.3745 188.486 14.0225 188.486 14.8743V20H186.681V15.1527C186.681 14.6787 186.555 14.3324 186.303 14.1136C186.051 13.8916 185.743 13.7805 185.378 13.7805C184.944 13.7805 184.604 13.9164 184.359 14.1882C184.117 14.4567 183.996 14.8063 183.996 15.2372V20H182.231V15.0781C182.231 14.6837 182.112 14.3688 181.873 14.1335C181.638 13.8982 181.33 13.7805 180.949 13.7805C180.69 13.7805 180.455 13.8468 180.243 13.9794C180.031 14.1087 179.862 14.2926 179.736 14.5313C179.61 14.7666 179.547 15.0417 179.547 15.3565V20L177.747 20ZM193.692 20.1491C192.926 20.1491 192.265 19.9901 191.708 19.6719C191.155 19.3504 190.729 18.8963 190.431 18.3097C190.132 17.7197 189.983 17.0253 189.983 16.2266C189.983 15.4411 190.132 14.7517 190.431 14.1584C190.732 13.5618 191.153 13.0978 191.694 12.7663C192.234 12.4316 192.868 12.2642 193.598 12.2642C194.068 12.2642 194.512 12.3404 194.93 12.4929C195.351 12.642 195.722 12.8741 196.044 13.1889C196.368 13.5038 196.624 13.9048 196.809 14.392C196.995 14.8759 197.088 15.4527 197.088 16.1222V16.674L190.828 16.674V15.4609L195.363 15.4609C195.359 15.1162 195.285 14.8097 195.139 14.5412C194.993 14.2694 194.789 14.0556 194.527 13.8999C194.269 13.7441 193.967 13.6662 193.623 13.6662C193.255 13.6662 192.931 13.7557 192.653 13.9347C192.375 14.1103 192.158 14.3423 192.002 14.6307C191.849 14.9157 191.771 15.2289 191.768 15.5703V16.6293C191.768 17.0734 191.849 17.4545 192.012 17.7727C192.174 18.0876 192.401 18.3295 192.693 18.4986C192.984 18.6643 193.326 18.7472 193.717 18.7472C193.979 18.7472 194.216 18.7107 194.428 18.6378C194.64 18.5616 194.824 18.4505 194.98 18.3047C195.136 18.1589 195.253 17.9782 195.333 17.7628L197.013 17.9517C196.907 18.3958 196.705 18.7836 196.407 19.1151C196.112 19.4432 195.734 19.6984 195.273 19.8807C194.812 20.0597 194.285 20.1491 193.692 20.1491ZM200.41 15.5256V20H198.61V12.3636H200.33V13.6612H200.42C200.596 13.2337 200.876 12.8939 201.26 12.642C201.648 12.3902 202.127 12.2642 202.697 12.2642C203.224 12.2642 203.683 12.3769 204.074 12.6023C204.468 12.8277 204.773 13.1541 204.989 13.5817C205.208 14.0092 205.315 14.5279 205.312 15.1378V20H203.512V15.4162C203.512 14.9058 203.38 14.5064 203.115 14.218C202.853 13.9297 202.49 13.7855 202.026 13.7855C201.711 13.7855 201.431 13.8551 201.186 13.9943C200.944 14.1302 200.753 14.3274 200.614 14.5859C200.478 14.8445 200.41 15.1577 200.41 15.5256ZM210.955 12.3636V13.7557H206.565V12.3636H210.955ZM207.649 10.5341H209.448V17.7031C209.448 17.9451 209.485 18.1307 209.558 18.2599C209.634 18.3859 209.733 18.4721 209.856 18.5185C209.979 18.5649 210.115 18.5881 210.264 18.5881C210.376 18.5881 210.479 18.5798 210.572 18.5632C210.668 18.5466 210.741 18.5317 210.791 18.5185L211.094 19.9254C210.998 19.9586 210.86 19.995 210.681 20.0348C210.506 20.0746 210.29 20.0978 210.035 20.1044C209.584 20.1177 209.178 20.0497 208.817 19.9006C208.456 19.7481 208.169 19.5128 207.957 19.1946C207.748 18.8764 207.645 18.4787 207.649 18.0014V10.5341Z" fill="#5D6598"/>
</svg>
