<svg xmlns:dc="http://purl.org/dc/elements/1.1/" xmlns:cc="http://creativecommons.org/ns#" xmlns:rdf="http://www.w3.org/1999/02/22-rdf-syntax-ns#" xmlns:svg="http://www.w3.org/2000/svg" xmlns="http://www.w3.org/2000/svg" xmlns:sodipodi="http://sodipodi.sourceforge.net/DTD/sodipodi-0.dtd" xmlns:inkscape="http://www.inkscape.org/namespaces/inkscape" version="1.1" inkscape:version="0.91 r13725" xml:space="preserve" width="651.8" height="127.2" viewBox="0 0 651.75927 127.22375"><style>.style0{fill:	#3b3e41;fill-rule:	nonzero;}.style1{fill:	#ff3d00;fill-rule:	nonzero;}.style2{fill:	#353233;fill-rule:	nonzero;}.style3{fill:	#3b3e41;fill-rule:	evenodd;}.style4{fill:	#ff3d00;fill-rule:	evenodd;}.style5{fill:	#353233;fill-rule:	evenodd;}</style><metadata><rdf:RDF><cc:Work rdf:about=""><dc:format>image/svg+xml</dc:format><dc:type rdf:resource="http://purl.org/dc/dcmitype/StillImage"/><dc:title/></cc:Work></rdf:RDF></metadata><defs/><g inkscape:groupmode="layer" inkscape:label="CISOfy" transform="matrix(1.25,0,0,-1.25,-229.7325,435.65913)"><path d="m 355.3 270.3 -2 0 -5.3 -12.1 2.2 0 1.2 2.9 5.7 0 1.2 -2.9 2.2 0 -5.3 12.1 z m 1.1 -7.3 -4.1 0 2.1 4.8 2.1 -4.8 z m 16.9 7.3 -2.1 0 0 -6.9 c 0 -1.1 -0.3 -1.9 -0.8 -2.5 -0.5 -0.6 -1.3 -0.8 -2.2 -0.8 -1 0 -1.7 0.3 -2.2 0.9 -0.5 0.6 -0.8 1.4 -0.8 2.6 l 0 6.8 -2.1 0 0 -6.9 c 0 -0.9 0.1 -1.6 0.4 -2.3 0.2 -0.7 0.6 -1.2 1 -1.7 0.4 -0.4 1 -0.8 1.6 -1 0.6 -0.2 1.3 -0.3 2.1 -0.3 0.8 0 1.5 0.1 2.1 0.3 0.6 0.2 1.2 0.6 1.6 1 0.4 0.5 0.8 1 1 1.7 0.2 0.7 0.4 1.5 0.4 2.4 l 0 6.8 z m 14.7 -6 c 0 0.8 -0.2 1.6 -0.5 2.4 -0.3 0.7 -0.7 1.4 -1.3 1.9 -0.6 0.5 -1.2 1 -2 1.3 -0.8 0.3 -1.6 0.5 -2.6 0.5 l -4.5 0 0 -12 4.5 0 c 0.9 0 1.8 0.2 2.6 0.5 0.8 0.3 1.5 0.7 2 1.3 0.6 0.5 1 1.2 1.3 1.9 0.3 0.7 0.5 1.5 0.5 2.4 z m -2.2 -0 c 0 -0.6 -0.1 -1.1 -0.3 -1.6 -0.2 -0.5 -0.5 -0.9 -0.8 -1.3 -0.4 -0.4 -0.8 -0.6 -1.3 -0.8 -0.5 -0.2 -1.1 -0.3 -1.7 -0.3 l -2.4 0 0 8.2 2.4 0 c 0.6 0 1.2 -0.1 1.7 -0.3 0.5 -0.2 1 -0.5 1.3 -0.9 0.4 -0.4 0.6 -0.8 0.8 -1.3 0.2 -0.5 0.3 -1 0.3 -1.6 z m 5.8 6 0 -12 2.1 0 0 12 -2.1 0 z m 11.3 -2 3.8 0 0 2 -9.8 0 0 -2 3.8 0 0 -10.1 2.1 0 0 10.1 z m 7.1 2 0 -12 2.1 0 0 12 -2.1 0 z m 14.6 -8.3 -6.4 8.3 -2 0 0 -12 2.1 0 0 8.6 6.6 -8.6 1.8 0 0 12 -2.1 0 0 -8.3 z m 16.8 -2 0 5.1 -5.1 0 0 -1.8 3.1 0 0 -2.3 c -0.4 -0.3 -0.8 -0.5 -1.3 -0.7 -0.5 -0.2 -1 -0.2 -1.6 -0.2 -0.6 0 -1.2 0.1 -1.7 0.3 -0.5 0.2 -0.9 0.5 -1.3 0.9 -0.4 0.4 -0.6 0.8 -0.8 1.4 -0.2 0.5 -0.3 1.1 -0.3 1.7 0 0.6 0.1 1.1 0.3 1.7 0.2 0.5 0.5 1 0.8 1.4 0.3 0.4 0.8 0.7 1.2 0.9 0.5 0.2 1 0.3 1.5 0.3 0.4 0 0.7 -0 1 -0.1 0.3 -0.1 0.6 -0.1 0.9 -0.3 0.3 -0.1 0.5 -0.2 0.8 -0.4 0.2 -0.2 0.5 -0.3 0.7 -0.5 l 1.3 1.6 c -0.3 0.3 -0.6 0.5 -1 0.7 -0.3 0.2 -0.7 0.4 -1 0.5 -0.4 0.1 -0.8 0.2 -1.2 0.3 -0.4 0.1 -0.9 0.1 -1.4 0.1 -0.9 0 -1.7 -0.2 -2.5 -0.5 -0.8 -0.3 -1.4 -0.8 -2 -1.3 -0.5 -0.6 -1 -1.2 -1.3 -2 -0.3 -0.8 -0.5 -1.6 -0.5 -2.4 0 -0.9 0.1 -1.7 0.4 -2.5 0.3 -0.8 0.7 -1.4 1.3 -2 0.5 -0.6 1.2 -1 2 -1.3 0.8 -0.3 1.6 -0.5 2.6 -0.5 0.5 0 1 0 1.5 0.1 0.5 0.1 0.9 0.2 1.3 0.4 0.4 0.2 0.8 0.4 1.2 0.6 0.4 0.2 0.7 0.5 1 0.7 z m 8.1 2.6 0 2 -5.1 0 0 -2 5.1 0 z m 11.3 0.8 0 -5.1 2.1 0 0 12 -2.1 0 0 -5 -5.7 0 0 5 -2.1 0 0 -12 2.1 0 0 5.1 5.7 0 z m 12.3 7 -2 0 -5.3 -12.1 2.2 0 1.2 2.9 5.7 0 1.2 -2.9 2.2 0 -5.3 12.1 z m 1.1 -7.3 -4.1 0 2.1 4.8 2.1 -4.8 z m 17.4 -4.8 -3.2 4.6 c 0.4 0.1 0.8 0.3 1.2 0.5 0.3 0.2 0.7 0.5 0.9 0.8 0.3 0.3 0.4 0.7 0.6 1 0.1 0.4 0.2 0.8 0.2 1.3 0 0.6 -0.1 1.1 -0.3 1.6 -0.2 0.5 -0.5 0.9 -0.9 1.2 -0.4 0.3 -0.9 0.6 -1.4 0.8 -0.6 0.2 -1.2 0.3 -1.9 0.3 l -5.4 0 0 -12 2.1 0 0 4.2 2.6 0 3 -4.2 2.5 0 z m -2.5 8.1 c 0 -0.6 -0.2 -1.1 -0.7 -1.5 -0.4 -0.4 -1 -0.6 -1.8 -0.6 l -3.1 0 0 4 3.1 0 c 0.8 0 1.4 -0.2 1.8 -0.5 0.4 -0.3 0.7 -0.8 0.7 -1.5 z m 16.5 -2.1 c 0 0.8 -0.2 1.6 -0.5 2.4 -0.3 0.7 -0.7 1.4 -1.3 1.9 -0.6 0.5 -1.2 1 -2 1.3 -0.8 0.3 -1.6 0.5 -2.6 0.5 l -4.5 0 0 -12 4.5 0 c 0.9 0 1.8 0.2 2.6 0.5 0.8 0.3 1.5 0.7 2 1.3 0.6 0.5 1 1.2 1.3 1.9 0.3 0.7 0.5 1.5 0.5 2.4 z m -2.2 -0 c 0 -0.6 -0.1 -1.1 -0.3 -1.6 -0.2 -0.5 -0.5 -0.9 -0.8 -1.3 -0.4 -0.4 -0.8 -0.6 -1.3 -0.8 -0.5 -0.2 -1.1 -0.3 -1.7 -0.3 l -2.4 0 0 8.2 2.4 0 c 0.6 0 1.2 -0.1 1.7 -0.3 0.5 -0.2 1 -0.5 1.3 -0.9 0.4 -0.4 0.6 -0.8 0.8 -1.3 0.2 -0.5 0.3 -1 0.3 -1.6 z m 14.6 6 -8.9 0 0 -12 9 0 0 1.9 -6.9 0 0 3.2 6 0 0 1.9 -6 0 0 3.1 6.8 0 0 1.9 z m 11.9 -8.3 -6.4 8.3 -2 0 0 -12 2.1 0 0 8.6 6.6 -8.6 1.8 0 0 12 -2.1 0 0 -8.3 z m 6.2 8.3 0 -12 2.1 0 0 12 -2.1 0 z m 14.6 -8.3 -6.4 8.3 -2 0 0 -12 2.1 0 0 8.6 6.6 -8.6 1.8 0 0 12 -2.1 0 0 -8.3 z m 16.8 -2 0 5.1 -5.1 0 0 -1.8 3.1 0 0 -2.3 c -0.4 -0.3 -0.8 -0.5 -1.3 -0.7 -0.5 -0.2 -1 -0.2 -1.6 -0.2 -0.6 0 -1.2 0.1 -1.7 0.3 -0.5 0.2 -0.9 0.5 -1.3 0.9 -0.4 0.4 -0.6 0.8 -0.8 1.4 -0.2 0.5 -0.3 1.1 -0.3 1.7 0 0.6 0.1 1.1 0.3 1.7 0.2 0.5 0.5 1 0.8 1.4 0.3 0.4 0.8 0.7 1.2 0.9 0.5 0.2 1 0.3 1.5 0.3 0.4 0 0.7 -0 1 -0.1 0.3 -0.1 0.6 -0.1 0.9 -0.3 0.3 -0.1 0.5 -0.2 0.8 -0.4 0.2 -0.2 0.5 -0.3 0.7 -0.5 l 1.3 1.6 c -0.3 0.3 -0.6 0.5 -1 0.7 -0.3 0.2 -0.7 0.4 -1 0.5 -0.4 0.1 -0.8 0.2 -1.2 0.3 -0.4 0.1 -0.9 0.1 -1.4 0.1 -0.9 0 -1.7 -0.2 -2.5 -0.5 -0.8 -0.3 -1.4 -0.8 -2 -1.3 -0.5 -0.6 -1 -1.2 -1.3 -2 -0.3 -0.8 -0.5 -1.6 -0.5 -2.4 0 -0.9 0.1 -1.7 0.4 -2.5 0.3 -0.8 0.7 -1.4 1.3 -2 0.5 -0.6 1.2 -1 2 -1.3 0.8 -0.3 1.6 -0.5 2.6 -0.5 0.5 0 1 0 1.5 0.1 0.5 0.1 0.9 0.2 1.3 0.4 0.4 0.2 0.8 0.4 1.2 0.6 0.4 0.2 0.7 0.5 1 0.7 z m 8.1 2.6 0 2 -5.1 0 0 -2 5.1 0 z m 13.9 -2.3 -1.4 1.4 c -0.5 -0.5 -1 -0.9 -1.6 -1.1 -0.5 -0.3 -1.2 -0.4 -1.9 -0.4 -0.6 0 -1.1 0.1 -1.6 0.3 -0.5 0.2 -0.9 0.5 -1.3 0.9 -0.4 0.4 -0.6 0.8 -0.8 1.4 -0.2 0.5 -0.3 1.1 -0.3 1.7 0 0.6 0.1 1.2 0.3 1.7 0.2 0.5 0.5 1 0.8 1.3 0.4 0.4 0.8 0.7 1.3 0.9 0.5 0.2 1 0.3 1.6 0.3 0.7 0 1.3 -0.1 1.8 -0.4 0.5 -0.3 1 -0.6 1.5 -1.1 l 1.4 1.6 c -0.3 0.3 -0.6 0.5 -0.9 0.8 -0.3 0.2 -0.7 0.4 -1 0.6 -0.4 0.2 -0.8 0.3 -1.2 0.4 -0.5 0.1 -1 0.1 -1.5 0.1 -0.9 0 -1.8 -0.2 -2.5 -0.5 -0.8 -0.3 -1.4 -0.8 -2 -1.3 -0.5 -0.6 -1 -1.2 -1.3 -2 -0.3 -0.8 -0.5 -1.6 -0.5 -2.4 0 -0.9 0.2 -1.7 0.5 -2.4 0.3 -0.8 0.7 -1.4 1.3 -2 0.5 -0.6 1.2 -1 1.9 -1.3 0.7 -0.3 1.6 -0.5 2.4 -0.5 0.6 0 1.1 0 1.5 0.1 0.5 0.1 0.9 0.2 1.3 0.4 0.4 0.2 0.8 0.4 1.1 0.7 0.3 0.3 0.7 0.6 1 0.9 z m 14.8 4.1 c 0 0.8 -0.2 1.7 -0.5 2.4 -0.3 0.8 -0.7 1.4 -1.3 2 -0.6 0.6 -1.2 1 -2 1.3 -0.8 0.3 -1.6 0.5 -2.5 0.5 -0.9 0 -1.8 -0.2 -2.5 -0.5 -0.8 -0.3 -1.4 -0.8 -2 -1.3 -0.6 -0.6 -1 -1.2 -1.3 -2 -0.3 -0.8 -0.5 -1.6 -0.5 -2.4 0 -0.8 0.2 -1.7 0.5 -2.4 0.3 -0.8 0.7 -1.4 1.3 -2 0.6 -0.6 1.2 -1 2 -1.3 0.8 -0.3 1.6 -0.5 2.5 -0.5 0.9 0 1.8 0.2 2.5 0.5 0.8 0.3 1.4 0.8 2 1.3 0.6 0.6 1 1.2 1.3 2 0.3 0.8 0.5 1.6 0.5 2.4 z m -2.2 -0 c 0 -0.6 -0.1 -1.1 -0.3 -1.7 -0.2 -0.5 -0.5 -1 -0.8 -1.4 -0.4 -0.4 -0.8 -0.7 -1.3 -0.9 -0.5 -0.2 -1 -0.3 -1.6 -0.3 -0.6 0 -1.1 0.1 -1.7 0.3 -0.5 0.2 -0.9 0.5 -1.3 0.9 -0.4 0.4 -0.6 0.8 -0.8 1.4 -0.2 0.5 -0.3 1.1 -0.3 1.7 0 0.6 0.1 1.1 0.3 1.7 0.2 0.5 0.5 1 0.8 1.4 0.4 0.4 0.8 0.7 1.3 0.9 0.5 0.2 1 0.3 1.6 0.3 0.6 0 1.1 -0.1 1.7 -0.3 0.5 -0.2 0.9 -0.5 1.3 -0.9 0.4 -0.4 0.6 -0.8 0.8 -1.4 0.2 -0.5 0.3 -1.1 0.3 -1.7 z m 15.4 2.6 0 -8.6 2.1 0 0 12 -2.3 0 -3.7 -5.7 -3.7 5.7 -2.3 0 0 -12 2.1 0 0 8.6 3.8 -5.6 0.1 0 3.8 5.7 z m 15.4 -0.6 c 0 0.6 -0.1 1.2 -0.3 1.7 -0.2 0.5 -0.5 0.9 -0.9 1.3 -0.4 0.4 -0.9 0.6 -1.4 0.8 -0.6 0.2 -1.2 0.3 -1.9 0.3 l -4.7 0 0 -12 2.1 0 0 3.9 2.4 0 c 0.7 0 1.3 0.1 1.9 0.3 0.6 0.2 1.1 0.4 1.5 0.8 0.4 0.3 0.8 0.8 1 1.3 0.3 0.5 0.4 1.1 0.4 1.8 z m -2.1 -0.1 c 0 -0.7 -0.2 -1.2 -0.7 -1.6 -0.5 -0.4 -1.1 -0.6 -1.9 -0.6 l -2.5 0 0 4.3 2.5 0 c 0.8 0 1.4 -0.2 1.9 -0.5 0.5 -0.4 0.7 -0.9 0.7 -1.6 z m 5.2 -7.9 8.4 0 0 1.9 -6.3 0 0 10.1 -2.1 0 0 -12 z m 11.7 12 0 -12 2.1 0 0 12 -2.1 0 z m 12.4 0.1 -2 0 -5.3 -12.1 2.2 0 1.2 2.9 5.7 0 1.2 -2.9 2.2 0 -5.3 12.1 z m 1.1 -7.3 -4.1 0 2.1 4.8 2.1 -4.8 z m 15.6 -1.1 -6.4 8.3 -2 0 0 -12 2.1 0 0 8.6 6.6 -8.6 1.8 0 0 12 -2.1 0 0 -8.3 z m 16.5 -1.8 -1.4 1.4 c -0.5 -0.5 -1 -0.9 -1.6 -1.1 -0.5 -0.3 -1.2 -0.4 -1.9 -0.4 -0.6 0 -1.1 0.1 -1.6 0.3 -0.5 0.2 -0.9 0.5 -1.3 0.9 -0.4 0.4 -0.6 0.8 -0.8 1.4 -0.2 0.5 -0.3 1.1 -0.3 1.7 0 0.6 0.1 1.2 0.3 1.7 0.2 0.5 0.5 1 0.8 1.3 0.4 0.4 0.8 0.7 1.3 0.9 0.5 0.2 1 0.3 1.6 0.3 0.7 0 1.3 -0.1 1.8 -0.4 0.5 -0.3 1 -0.6 1.5 -1.1 l 1.4 1.6 c -0.3 0.3 -0.6 0.5 -0.9 0.8 -0.3 0.2 -0.7 0.4 -1 0.6 -0.4 0.2 -0.8 0.3 -1.2 0.4 -0.5 0.1 -1 0.1 -1.5 0.1 -0.9 0 -1.8 -0.2 -2.5 -0.5 -0.8 -0.3 -1.4 -0.8 -2 -1.3 -0.5 -0.6 -1 -1.2 -1.3 -2 -0.3 -0.8 -0.5 -1.6 -0.5 -2.4 0 -0.9 0.2 -1.7 0.5 -2.4 0.3 -0.8 0.7 -1.4 1.3 -2 0.5 -0.6 1.2 -1 1.9 -1.3 0.7 -0.3 1.6 -0.5 2.4 -0.5 0.6 0 1.1 0 1.5 0.1 0.5 0.1 0.9 0.2 1.3 0.4 0.4 0.2 0.8 0.4 1.1 0.7 0.3 0.3 0.7 0.6 1 0.9 z m 12 10.1 -8.9 0 0 -12 9 0 0 1.9 -6.9 0 0 3.2 6 0 0 1.9 -6 0 0 3.1 6.8 0 0 1.9 z" inkscape:connector-curvature="0" class="style0"/><path d="m 664.6 279.8 0 21.8 -30.5 35.6 13.5 0 22.4 -26.5 22.4 26.5 12.8 0 -30.6 -35.6 0 -21.8 -10 0 z m -65.9 23.8 0 8.8 29.1 0 0 -8.8 -29.1 0 z m -7.3 -23.8 0 6.5 0.1 23.6 c 0.1 2.3 0.6 4.3 1.3 6.3 0.9 2.3 2.1 4.2 3.7 5.8 1.6 1.6 3.5 2.9 5.7 3.8 2.2 0.9 4.6 1.4 7.2 1.4 l 20.9 0 0 10 -20.9 0 c -4 0 -7.7 -0.7 -11.1 -2 -3.4 -1.3 -6.3 -3.2 -8.8 -5.7 -2.5 -2.4 -4.5 -5.4 -5.8 -8.9 -1.4 -3.6 -2.1 -7.7 -2.1 -11.5 l 0 -29.3 10 0 z" inkscape:connector-curvature="0" class="style1"/><path d="m 546.1 289.9 c 2.6 0 5.1 0.5 7.3 1.4 2.2 0.9 4.1 2.3 5.7 3.9 1.6 1.7 2.9 3.6 3.8 6 0.9 2.3 1.3 4.8 1.3 7.5 0 2.7 -0.4 5.2 -1.3 7.5 -0.9 2.3 -2.1 4.3 -3.8 5.9 -1.6 1.6 -3.5 2.9 -5.7 3.8 -2.2 0.9 -4.6 1.4 -7.3 1.4 l -14 0 c -2.6 0 -5 -0.5 -7.2 -1.4 -2.2 -0.9 -4.1 -2.2 -5.7 -3.8 -1.6 -1.6 -2.8 -3.6 -3.7 -5.8 -0.9 -2.3 -1.3 -4.8 -1.3 -7.5 0 -2.7 0.4 -5.2 1.3 -7.5 0.9 -2.3 2.1 -4.3 3.7 -6 1.6 -1.7 3.5 -3 5.7 -3.9 2.2 -0.9 4.6 -1.4 7.2 -1.4 l 14 0 z m -14 -10 c -4 0 -7.7 0.8 -11.1 2.3 -3.4 1.5 -6.3 3.6 -8.8 6.2 -2.5 2.6 -4.5 5.7 -5.8 9.3 -1.4 3.6 -2.1 7.5 -2.1 11.6 0 4.2 0.7 8.1 2.1 11.5 1.4 3.5 3.3 6.4 5.8 8.9 2.5 2.5 5.5 4.3 8.8 5.7 3.4 1.3 7.1 2 11.1 2 l 14 0 c 4.2 0 8 -0.7 11.4 -2.1 3.5 -1.4 6.4 -3.3 8.9 -5.8 2.5 -2.5 4.4 -5.4 5.8 -8.9 1.4 -3.5 2.1 -7.3 2.1 -11.4 0 -4.2 -0.7 -8 -2.1 -11.6 -1.4 -3.6 -3.3 -6.7 -5.8 -9.3 -2.5 -2.6 -5.5 -4.7 -8.9 -6.2 -3.4 -1.5 -7.2 -2.3 -11.3 -2.3 l -14 0 z m -95.8 0 0 10 43.1 0 c 2.7 0 4.8 0.7 6.2 2.1 1.4 1.4 2.2 3.2 2.2 5.5 0 2.5 -0.7 4.3 -2.2 5.6 -1.4 1.2 -3.5 1.9 -6.2 1.9 l -26.4 0 c -2.7 0 -5.1 0.4 -7.3 1.2 -2.2 0.8 -4 1.9 -5.5 3.4 -1.5 1.4 -2.7 3.2 -3.5 5.2 -0.8 2 -1.2 4.2 -1.2 6.6 0 2.3 0.4 4.5 1.1 6.4 0.8 2 1.9 3.7 3.4 5.1 1.5 1.4 3.4 2.5 5.6 3.4 2.2 0.8 4.7 1.2 7.6 1.2 l 41.2 0 0 -10 -41.2 0 c -2.3 0 -4.1 -0.6 -5.4 -1.9 -1.3 -1.2 -1.9 -3 -1.9 -5.2 0 -2.2 0.6 -3.9 1.9 -5.1 1.3 -1.2 3 -1.8 5.3 -1.8 l 26.3 0 c 5.8 0 10.3 -1.4 13.3 -4.1 3 -2.7 4.5 -6.9 4.5 -12.5 0 -2.4 -0.4 -4.7 -1.1 -6.7 -0.7 -2.1 -1.8 -3.8 -3.3 -5.3 -1.5 -1.5 -3.3 -2.7 -5.6 -3.5 -2.2 -0.8 -4.9 -1.3 -7.9 -1.3 l -43.1 0 z m -20.5 0 0 57.4 10 0 0 -57.4 -10 0 z m -39.8 0 c -4 0 -7.7 0.8 -11.1 2.3 -3.4 1.5 -6.3 3.6 -8.9 6.2 -2.5 2.6 -4.5 5.7 -5.8 9.3 -1.4 3.6 -2.1 7.5 -2.1 11.6 0 4.2 0.7 8.1 2.1 11.5 1.4 3.5 3.3 6.4 5.8 8.9 2.5 2.5 5.5 4.3 8.9 5.7 3.4 1.3 7.1 2 11.1 2 l 31.1 0 0 -10 -31.1 0 c -2.6 0 -5 -0.5 -7.2 -1.4 -2.2 -0.9 -4.1 -2.2 -5.6 -3.8 -1.6 -1.6 -2.8 -3.6 -3.7 -5.8 -0.9 -2.3 -1.3 -4.8 -1.3 -7.5 0 -2.7 0.4 -5.2 1.3 -7.5 0.9 -2.3 2.1 -4.3 3.7 -6 1.6 -1.7 3.5 -3 5.6 -3.9 2.2 -0.9 4.6 -1.4 7.2 -1.4 l 31.1 0 0 -10 -31.1 0 z" inkscape:connector-curvature="0" class="style2"/><path d="m 313.3 348.5 2.6 0 0 -101.8 -2.6 0 0 101.8 z" inkscape:connector-curvature="0" class="style3"/><path d="m 262.3 277.8 0 0 c 0 -2.9 -2.4 -5.2 -5.2 -5.2 l -29.1 0 c -2.9 0 -5.2 2.4 -5.2 5.2 l 0 0 c 0 2.9 2.4 5.2 5.2 5.2 l 29.1 0 c 2.9 0 5.2 -2.4 5.2 -5.2 z m 0 41.2 0 0 c 0 -2.9 -2.4 -5.2 -5.2 -5.2 l -29.1 0 c -2.9 0 -5.2 2.4 -5.2 5.2 l 0 0 c 0 2.9 2.4 5.2 5.2 5.2 l 29.1 0 c 2.9 0 5.2 -2.4 5.2 -5.2 z m 8.9 5.2 c 2.9 0 5.2 -2.3 5.2 -5.2 0 -2.9 -2.3 -5.2 -5.2 -5.2 -2.9 0 -5.2 2.3 -5.2 5.2 0 2.9 2.3 5.2 5.2 5.2 z m 0 -41.2 c 2.9 0 5.2 -2.3 5.2 -5.2 0 -2.9 -2.3 -5.2 -5.2 -5.2 -2.9 0 -5.2 2.3 -5.2 5.2 0 2.9 2.3 5.2 5.2 5.2 z m -13.8 20.6 c 2.9 0 5.2 -2.3 5.2 -5.2 0 -2.9 -2.3 -5.2 -5.2 -5.2 -2.9 0 -5.2 2.3 -5.2 5.2 0 2.9 2.3 5.2 5.2 5.2 z m -11.7 -5.2 0 0 c 0 -2.9 -2.4 -5.2 -5.2 -5.2 l -27.5 0 c -2.9 0 -5.2 2.4 -5.2 5.2 l 0 0 c 0 2.9 2.4 5.2 5.2 5.2 l 27.5 0 c 2.9 0 5.2 -2.4 5.2 -5.2" inkscape:connector-curvature="0" class="style4"/><path d="m 195.4 297.6 c 0 -19.4 15.9 -35.2 35.2 -35.2 l 35.3 0 -0.1 -0 c 0.2 0 0.4 0 0.6 0 l 4.7 0 c 2.9 0 5.2 -2.4 5.2 -5.2 l 0 0 c 0 -2.9 -2.4 -5.2 -5.2 -5.2 l -4.7 0 -36.2 0 c -25.1 0 -45.7 20.6 -45.7 45.7 0 25.1 20.6 45.7 45.7 45.7 l 36.2 0 4.7 0 c 2.9 0 5.2 -2.4 5.2 -5.2 l 0 0 c 0 -2.9 -2.4 -5.2 -5.2 -5.2 l -4.7 0 c -0.2 0 -0.4 0 -0.6 0 l 0.1 -0 -35.3 0 c -19.4 0 -35.2 -15.9 -35.2 -35.2" inkscape:connector-curvature="0" class="style5"/></g></svg>